<svg width="88" height="109" viewBox="0 0 88 109" fill="none" xmlns="http://www.w3.org/2000/svg">
<path d="M49.8928 59.6093H56.8953V69.8281C56.8953 71.59 59.3199 72.1826 60.1828 70.6437L70.6865 51.9093C71.3216 50.7767 70.4782 49.3906 69.1497 49.3906H62.1472V39.1718C62.1472 37.4129 59.7248 36.8132 58.8597 38.3562L48.356 57.0906C47.721 58.2232 48.5643 59.6093 49.8928 59.6093ZM58.646 45.8508V51.0937C58.646 52.0343 59.4298 52.7968 60.3966 52.7968H66.2006L60.3966 63.1491V57.9062C60.3966 56.9656 59.6127 56.2031 58.646 56.2031H52.842L58.646 45.8508Z" fill="white"/>
<path d="M87.5312 28.1016C87.5312 25.1038 85.2447 22.6171 82.2794 22.2024V5.96094C82.2794 2.67412 79.5307 0 76.1522 0C72.7737 0 70.025 2.67412 70.025 5.96094V22.1406H49.0175V5.96094C49.0175 2.67412 46.2688 0 42.8903 0C39.5118 0 36.7631 2.67412 36.7631 5.96094V22.2024C33.7978 22.6169 31.5112 25.1038 31.5112 28.1016C31.5112 30.4747 32.9444 32.5278 35.0125 33.4862V54.5C35.0125 63.9926 40.7445 72.2063 49.0175 76.0401V81.75C49.0175 84.9187 51.2526 87.5887 54.2694 88.3468V94.0977C54.2694 96.6802 52.1098 98.7812 49.4552 98.7812H18.8192C16.1646 98.7812 14.005 96.6802 14.005 94.0977V78.3391C16.1296 76.7839 17.5063 74.3112 17.5063 71.5312C17.5063 66.8357 13.5796 63.0156 8.75313 63.0156C3.92665 63.0156 0 66.8357 0 71.5312C0 74.3112 1.37665 76.7839 3.50125 78.3391V94.5234C3.50125 102.506 10.1766 109 18.3816 109H49.8928C58.0978 109 64.7731 102.506 64.7731 94.5234V88.3468C67.7899 87.5887 70.025 84.9184 70.025 81.75V76.0401C78.298 72.2063 84.03 63.9926 84.03 54.5V33.4862C86.0981 32.5278 87.5312 30.4747 87.5312 28.1016ZM73.5263 5.96094C73.5263 4.55224 74.7042 3.40625 76.1522 3.40625C77.6002 3.40625 78.7781 4.55224 78.7781 5.96094V22.1406H73.5263V5.96094ZM40.2644 5.96094C40.2644 4.55224 41.4423 3.40625 42.8903 3.40625C44.3383 3.40625 45.5163 4.55224 45.5163 5.96094V22.1406H40.2644V5.96094ZM8.75313 66.4219C11.6489 66.4219 14.005 68.7141 14.005 71.5312C14.005 74.3484 11.6489 76.6406 8.75313 76.6406C5.85737 76.6406 3.50125 74.3484 3.50125 71.5312C3.50125 68.7141 5.85737 66.4219 8.75313 66.4219ZM49.8928 105.594H18.3816C12.1071 105.594 7.0025 100.628 7.0025 94.5234V79.8755C8.12006 80.0971 9.31726 80.1107 10.5037 79.8755V94.0977C10.5037 98.5583 14.2341 102.188 18.8192 102.188H49.4552C54.0403 102.188 57.7706 98.5583 57.7706 94.0977V88.5625H61.2719V94.5234C61.2719 100.628 56.1673 105.594 49.8928 105.594ZM66.5238 81.75C66.5238 83.6281 64.953 85.1562 63.0225 85.1562H56.02C54.0895 85.1562 52.5187 83.6281 52.5187 81.75V77.3504C56.968 78.6433 61.8568 78.7065 66.5238 77.3504V81.75ZM80.5287 54.5C80.5287 65.7694 71.1049 74.9375 59.5213 74.9375C47.9376 74.9375 38.5138 65.7694 38.5138 54.5V34.0625H80.5287V54.5ZM81.4041 30.6562H37.6384C36.1905 30.6562 35.0125 29.5103 35.0125 28.1016C35.0125 26.6929 36.1905 25.5469 37.6384 25.5469H81.4041C82.8521 25.5469 84.03 26.6929 84.03 28.1016C84.03 29.5103 82.8521 30.6562 81.4041 30.6562Z" fill="white"/>
</svg>
