<svg width="120" height="93" viewBox="0 0 120 93" fill="none" xmlns="http://www.w3.org/2000/svg">
<path d="M51 21.4991C51 26.7381 55.0376 31 60 31C64.9624 31 69 26.7381 69 21.4991C69 16.261 64.9624 12 60 12C55.0376 12 51 16.261 51 21.4991ZM60 15.6183C63.0726 15.6183 65.5721 18.2567 65.5721 21.5C65.5721 24.7433 63.0726 27.3817 60 27.3817C56.9274 27.3817 54.4279 24.7424 54.4279 21.4991C54.4279 18.2567 56.9274 15.6183 60 15.6183Z" fill="white"/>
<path d="M118.242 31.1027H98.833V12.4129H118.242C119.213 12.4129 120 11.5668 120 10.524C120 9.48024 119.213 8.63518 118.242 8.63518H98.833V7.69666C98.833 4.29475 96.2576 1.52837 93.0917 1.52837H89.0762C85.9113 1.52837 83.3359 4.29475 83.3359 7.69666V7.99769H76.1765C73.158 3.90124 68.9282 1.08961 64.1702 0.0389327C63.219 -0.170612 62.2906 0.486551 62.0947 1.5087C61.8997 2.52986 62.5122 3.52839 63.4625 3.73892C67.6538 4.66465 71.3525 7.24117 73.8785 10.9943C74.2081 11.4852 74.7382 11.7754 75.3021 11.7754H83.335V31.7392H75.3021C74.7382 31.7392 74.2081 32.0294 73.8785 32.5203C72.8027 34.118 71.5036 35.5139 70.0168 36.6699C69.5599 37.025 69.2889 37.5946 69.2889 38.1997V53.6007H50.7111V38.1997C50.7111 37.5946 50.4401 37.025 49.9832 36.6699C48.4964 35.5139 47.1973 34.118 46.1215 32.5203C45.7919 32.0294 45.2618 31.7392 44.6979 31.7392H36.665V11.7754H44.6979C45.2618 11.7754 45.7919 11.4852 46.1215 10.9943C48.6026 7.30708 52.2308 4.74729 56.337 3.78417C57.2855 3.56184 57.887 2.55544 57.6801 1.53624C57.4731 0.517049 56.5347 -0.129293 55.5881 0.0940242C50.9317 1.18503 46.7871 3.97798 43.8245 7.99769H36.665V7.69666C36.665 4.29475 34.0897 1.52837 30.9238 1.52837H26.9083C23.7433 1.52837 21.1679 4.29475 21.1679 7.69666V8.63518H1.75781C0.787354 8.63518 0 9.48024 0 10.524C0 11.5668 0.787354 12.4129 1.75781 12.4129H21.167V31.1027H1.75781C0.787354 31.1027 0 31.9478 0 32.9915C0 34.0343 0.787354 34.8804 1.75781 34.8804H21.167V35.8179C21.167 39.2198 23.7424 41.9862 26.9083 41.9862H30.9238C34.0887 41.9862 36.6641 39.2198 36.6641 35.8179V35.5169H43.8245C44.8151 36.8607 45.9439 38.0737 47.1954 39.1392V53.6017H46.9153C43.7494 53.6017 41.174 56.369 41.174 59.77V64.0858C41.174 67.4867 43.7494 70.2541 46.9153 70.2541H47.7878V91.1112C47.7878 92.154 48.5751 93 49.5456 93C50.5161 93 51.3034 92.154 51.3034 91.1112V70.2541H68.6966V91.1102C68.6966 92.154 69.4839 92.999 70.4544 92.999C71.4249 92.999 72.2122 92.154 72.2122 91.1102V70.2541H73.0847C76.2506 70.2541 78.826 67.4867 78.826 64.0848V59.77C78.826 56.3681 76.2506 53.6017 73.0847 53.6017H72.8046V39.1392C74.0561 38.0737 75.1849 36.8607 76.1755 35.5169H83.3359V35.8179C83.3359 39.2189 85.9113 41.9862 89.0762 41.9862H93.0917C96.2576 41.9862 98.833 39.2189 98.833 35.8179V34.8794H118.242C119.213 34.8794 120 34.0343 120 32.9906C120 31.9478 119.213 31.1027 118.242 31.1027ZM33.1494 35.8179C33.1494 37.1362 32.1506 38.2085 30.9238 38.2085H26.9083C25.6815 38.2085 24.6835 37.1362 24.6835 35.8179V7.69666C24.6835 6.37839 25.6815 5.30608 26.9083 5.30608H30.9238C32.1506 5.30608 33.1494 6.37839 33.1494 7.69666V35.8179ZM75.3104 59.77V64.0848C75.3104 65.4031 74.3115 66.4764 73.0847 66.4764H46.9153C45.6885 66.4764 44.6896 65.4031 44.6896 64.0848V59.77C44.6896 58.4517 45.6885 57.3794 46.9153 57.3794H73.0847C74.3115 57.3794 75.3104 58.4517 75.3104 59.77ZM95.3174 35.8179C95.3174 37.1362 94.3185 38.2085 93.0917 38.2085H89.0762C87.8494 38.2085 86.8515 37.1362 86.8515 35.8179V7.69666C86.8515 6.37839 87.8494 5.30608 89.0762 5.30608H93.0917C94.3185 5.30608 95.3174 6.37839 95.3174 7.69666V35.8179Z" fill="white"/>
</svg>
