<svg width="96" height="121" viewBox="0 0 96 121" fill="none" xmlns="http://www.w3.org/2000/svg">
<path d="M43.6778 89.9025C43.6661 89.8868 43.6535 89.8712 43.6409 89.8555L39.3961 84.6498C39.3754 84.6249 39.3538 84.5999 39.3322 84.5759L29.8263 72.9238V57.701C29.8263 56.403 28.7955 55.3469 27.5297 55.3469H25.7112V1.77246C25.7112 0.793915 24.9378 0 23.9826 0C23.0275 0 22.2541 0.793915 22.2541 1.77246V55.3469H20.4356C19.1689 55.3469 18.139 56.403 18.139 57.701L18.1453 72.9063L16.8345 74.5135C16.2223 75.265 16.3195 76.3829 17.0524 77.0107C17.7843 77.6384 18.8745 77.5387 19.4867 76.7882L20.7975 75.181C21.3124 74.5486 21.596 73.7473 21.596 72.9238V58.8919H26.3683V72.9238C26.3683 73.7473 26.6519 74.5486 27.1669 75.181L34.3708 84.0146H13.5935L14.6802 82.6816C15.2932 81.9311 15.1951 80.8131 14.4632 80.1854C13.7304 79.5567 12.6402 79.6564 12.0289 80.4079L8.57094 84.6479C8.57004 84.6489 8.56914 84.6498 8.56914 84.6498L5.4371 88.491L1.22385 93.6579C0.623367 94.3946 0.292969 95.3279 0.292969 96.288V99.6622C0.292969 101.923 2.0863 103.763 4.29196 103.763H43.6733C45.8781 103.763 47.6723 101.923 47.6723 99.6622V96.288C47.6723 95.3279 47.3419 94.3937 46.7414 93.6579L43.6778 89.9025ZM37.2616 87.5596L38.5715 89.1659L38.6156 89.2194H9.34967L9.73138 88.7514L10.7037 87.5596H37.2616ZM44.2153 99.6622C44.2153 99.9686 43.9722 100.218 43.6733 100.218H4.29196C3.99307 100.218 3.75 99.9686 3.75 99.6622V96.288C3.75 96.1579 3.79411 96.0314 3.87604 95.9317L6.45891 92.7643H41.5064L44.0883 95.9317C44.1703 96.0314 44.2144 96.1579 44.2144 96.288V99.6622H44.2153Z" fill="white"/>
<path d="M36.7466 47.8103H51.0069C51.9018 47.8103 52.7372 47.4013 53.2999 46.6877C53.8616 45.9741 54.0768 45.051 53.8895 44.1546L51.8981 34.6221C51.8972 34.6211 51.8972 34.6202 51.8972 34.6193L50.8097 29.4145C50.8097 29.4136 50.8097 29.4127 50.8088 29.4118L49.2298 21.852C48.9399 20.4664 47.7272 19.462 46.3462 19.462H45.6053V1.77246C45.6053 0.793915 44.8319 0 43.8768 0C42.9225 0 42.1482 0.793915 42.1482 1.77246V19.4611H41.4073C40.0263 19.4611 38.8145 20.4664 38.5247 21.8511L36.9447 29.4099C36.9447 29.4109 36.9438 29.4127 36.9438 29.4145L35.8563 34.6193C35.8554 34.6221 35.8554 34.6239 35.8545 34.6267L35.4205 36.7056C35.2207 37.6629 35.8149 38.6055 36.7484 38.8104C37.6802 39.0163 38.6012 38.4061 38.801 37.4488L38.9442 36.7629H48.8102L50.3776 44.2663H37.2643C37.1617 43.5555 36.6413 42.9517 35.9166 42.7929C34.9848 42.5889 34.0638 43.1973 33.864 44.1546C33.6767 45.051 33.8919 45.9751 34.4545 46.6887C35.0163 47.4013 35.8518 47.8103 36.7466 47.8103ZM41.8187 23.006H45.9348L46.9809 28.0132H40.7726L41.8187 23.006ZM39.6851 33.2179L40.0317 31.5581H47.7218L48.0684 33.2179H39.6851Z" fill="white"/>
<path d="M71.8094 89.9653C70.8542 89.9653 70.0809 90.7583 70.0809 91.7378V95.8228C70.0809 96.8013 70.8542 97.5952 71.8094 97.5952C72.7637 97.5952 73.5379 96.8013 73.5379 95.8228V91.7378C73.5379 90.7583 72.7637 89.9653 71.8094 89.9653Z" fill="white"/>
<path d="M78.5641 84.5842C77.8889 83.8918 76.7942 83.8918 76.1199 84.5842C75.4447 85.2766 75.4447 86.3991 76.1199 87.0906L79.2177 90.2681C79.5553 90.6143 79.9973 90.7869 80.4403 90.7869C80.8823 90.7869 81.3243 90.6143 81.6619 90.2681C82.3371 89.5757 82.3371 88.4532 81.6619 87.7617L78.5641 84.5842Z" fill="white"/>
<path d="M65.0547 84.5842L61.9568 87.7617C61.2816 88.4532 61.2816 89.5757 61.9568 90.2681C62.2944 90.6143 62.7365 90.7869 63.1785 90.7869C63.6214 90.7869 64.0635 90.6143 64.4011 90.2681L67.4989 87.0906C68.1741 86.3991 68.1741 85.2766 67.4998 84.5842C66.8237 83.8918 65.7299 83.8918 65.0547 84.5842Z" fill="white"/>
<path d="M23.9827 113.37C23.0275 113.37 22.2542 114.164 22.2542 115.143V119.228C22.2542 120.206 23.0275 121 23.9827 121C24.9379 121 25.7112 120.206 25.7112 119.228V115.143C25.7112 114.164 24.937 113.37 23.9827 113.37Z" fill="white"/>
<path d="M30.7374 107.99C30.0622 107.298 28.9674 107.298 28.2931 107.99C27.6179 108.682 27.6179 109.804 28.2922 110.496L31.391 113.673C31.7286 114.019 32.1706 114.193 32.6126 114.193C33.0556 114.193 33.4976 114.019 33.8352 113.673C34.5104 112.981 34.5104 111.859 33.8352 111.167L30.7374 107.99Z" fill="white"/>
<path d="M17.2279 107.99L14.1301 111.167C13.4549 111.859 13.4549 112.981 14.1301 113.673C14.4677 114.019 14.9098 114.193 15.3527 114.193C15.7947 114.193 16.2367 114.019 16.5743 113.673L19.6731 110.496C20.3474 109.804 20.3474 108.681 19.6722 107.99C18.9979 107.298 17.9031 107.298 17.2279 107.99Z" fill="white"/>
<path d="M95.4577 62.7543C95.4541 62.7405 95.4514 62.7257 95.4478 62.711C95.445 62.7008 95.4432 62.6907 95.4405 62.6805C95.3811 62.4294 95.3118 62.1811 95.2344 61.9337C94.2756 58.8743 92.0627 56.4215 89.163 55.2038L76.886 50.048V39.9865C76.886 38.6886 75.8552 37.6325 74.5894 37.6325H73.5379V1.77246C73.5379 0.793915 72.7646 0 71.8094 0C70.8542 0 70.0809 0.793915 70.0809 1.77246V37.6325H69.0294C67.7636 37.6325 66.7328 38.6886 66.7328 39.9865V50.0489L64.9944 50.7792C64.1103 51.1493 63.6872 52.1851 64.0491 53.0907C64.411 53.9964 65.4202 54.4302 66.3043 54.0591L68.7647 53.0261C69.6307 52.6624 70.1898 51.8076 70.1898 50.8475V41.1774H73.429V50.8475C73.429 51.8076 73.9889 52.6624 74.855 53.0261L87.854 58.4847C88.8056 58.8845 89.6473 59.4818 90.3351 60.2277H53.2837C53.9715 59.4818 54.8132 58.8845 55.7648 58.4847L59.3587 56.9763C60.2418 56.6052 60.665 55.5703 60.3031 54.6638C59.9412 53.7582 58.9311 53.3234 58.0488 53.6954L54.4558 55.2038C51.5561 56.4215 49.3423 58.8743 48.3835 61.9337C48.3061 62.1829 48.2368 62.434 48.1764 62.686C48.1755 62.6925 48.1737 62.698 48.1719 62.7045C48.1674 62.7239 48.1629 62.7433 48.1584 62.7627C47.7929 64.3449 47.7767 65.9882 48.1188 67.5852C48.1224 67.6018 48.1269 67.6185 48.1305 67.6351C48.3907 68.8232 48.848 69.9716 49.4953 71.0295L53.1495 77.0042C54.2884 78.8644 56.2465 79.9749 58.3882 79.9749H85.2288C87.3714 79.9749 89.3295 78.8644 90.4675 77.0033L94.1226 71.0295C94.7698 69.9716 95.2263 68.8232 95.4874 67.6351C95.491 67.6185 95.4946 67.6018 95.4982 67.5852C95.8421 65.9854 95.8259 64.3394 95.4577 62.7543ZM51.4813 63.7726H92.1375C92.1384 63.7791 92.1402 63.7846 92.1411 63.7911C92.1429 63.7984 92.1438 63.8058 92.1456 63.8132C92.2509 64.3496 92.2968 64.8924 92.2851 65.4324H51.3337C51.3211 64.8785 51.3697 64.3219 51.4813 63.7726ZM87.5398 75.12C87.0374 75.9407 86.1741 76.43 85.2297 76.43H58.3891C57.4438 76.43 56.5805 75.9407 56.079 75.12L52.4239 69.1463C52.3906 69.0909 52.3564 69.0346 52.324 68.9773H91.2948C91.2624 69.0346 91.2291 69.0909 91.1949 69.1463L87.5398 75.12Z" fill="white"/>
</svg>
