<svg height="512pt" fill="#FFF" viewBox="0 -19 512.00046 512" width="512pt" xmlns="http://www.w3.org/2000/svg"><path d="m183.535156 86.390625c-10.277344 17.953125-18.683594 42.484375-24.480468 71.585937-.808594 4.0625 1.828124 8.011719 5.894531 8.820313.492187.097656.984375.144531 1.472656.144531 3.503906 0 6.636719-2.46875 7.347656-6.035156 6.210938-31.195312 15.402344-56.511719 26.582031-73.214844 1.207032-1.804687 1.574219-4.046875 1.003907-6.144531-.570313-2.09375-2.019531-3.839844-3.980469-4.785156-2.046875-.984375-4.089844-2.0625-6.066406-3.203125-12.261719-7.066406-17.292969-13.5625-19.351563-17.773438-2.167969-4.429687-2.164062-8.589844.007813-12.359375 5.144531-8.925781 18.515625-8.316406 35.769531 1.621094 7.332031 4.226563 13.882813 9.316406 18.945313 14.714844 2.058593 2.195312 5.226562 2.949219 8.054687 1.914062 49.496094-18.152343 143.097656-18.152343 192.601563 0 2.824218 1.035157 5.996093.285157 8.054687-1.914062 5.0625-5.398438 11.613281-10.488281 18.945313-14.714844 12.261718-7.0625 20.410156-8.148437 25.074218-7.828125 4.921875.347656 8.519532 2.433594 10.695313 6.207031 5.140625 8.925781-2.089844 20.1875-19.34375 30.128907-1.984375 1.144531-4.027344 2.226562-6.070313 3.207031-1.957031.945312-3.40625 2.691406-3.980468 4.785156-.570313 2.097656-.203126 4.339844 1.003906 6.144531 8.84375 13.210938 16.324218 31.425782 22.230468 54.136719 1.042969 4.007813 5.132813 6.40625 9.144532 5.371094 4.007812-1.042969 6.414062-5.136719 5.371094-9.144531-5.367188-20.632813-12.054688-37.96875-19.921876-51.667969 29.625-17.191407 32.128907-37.320313 24.558594-50.449219-4.679687-8.125-12.71875-12.984375-22.636718-13.679688-9.832032-.683593-21.136719 2.605469-33.613282 9.796876-7.023437 4.046874-13.480468 8.816406-18.910156 13.949218-52.371094-17.351562-141.4375-17.351562-193.804688 0-5.433593-5.132812-11.886718-9.902344-18.914062-13.949218-29.898438-17.230469-48.660156-9.292969-56.25 3.882812-4.683594 8.125-4.855469 17.515625-.484375 26.445312 4.300781 8.78125 12.726563 16.855469 25.050781 24.007813zm0 0"/><path d="m505.046875 168.996094c-.699219-4.082032-4.570313-6.824219-8.65625-6.132813-4.082031.699219-6.828125 4.574219-6.128906 8.65625 15.335937 89.875 3.878906 194.191407-26.082031 237.488281-1.230469 1.773438-1.632813 3.988282-1.109376 6.082032.523438 2.09375 1.921876 3.859375 3.835938 4.851562 1.328125.683594 2.625 1.390625 3.855469 2.097656 17.253906 9.945313 24.484375 21.207032 19.34375 30.132813-2.175781 3.773437-5.773438 5.859375-10.695313 6.207031-4.671875.328125-12.8125-.765625-25.074218-7.832031-7.070313-4.074219-13.441407-8.972656-18.425782-14.164063-2.023437-2.105468-5.082031-2.847656-7.84375-1.902343-4.9375 1.691406-10.402344 3.261719-16.238281 4.664062-4.03125.96875-6.511719 5.015625-5.542969 9.042969.964844 4.027344 5.011719 6.503906 9.039063 5.542969 4.617187-1.109375 9.027343-2.316407 13.171875-3.609375 5.316406 4.933594 11.582031 9.523437 18.351562 13.421875 11.398438 6.570312 21.820313 9.890625 31.027344 9.886719.871094 0 1.734375-.027344 2.585938-.089844 9.917968-.695313 17.957031-5.554688 22.640624-13.679688 7.359376-12.769531 5.195313-32.15625-22.183593-49.023437 17.78125-30.195313 25.320312-72.824219 28.511719-104.375 4.566406-45.171875 3.011718-93.921875-4.382813-137.265625zm0 0"/><path d="m428.835938 218.152344v-43.90625c0-19.046875-15.496094-34.542969-34.546876-34.542969h-126.511718c-19.046875 0-34.542969 15.496094-34.542969 34.542969v43.90625c0 19.046875 15.496094 34.542968 34.542969 34.542968h126.515625c19.046875 0 34.542969-15.496093 34.542969-34.542968zm-15 0c0 10.777344-8.769532 19.542968-19.546876 19.542968h-126.511718c-10.777344 0-19.542969-8.765624-19.542969-19.542968v-43.90625c0-10.773438 8.765625-19.542969 19.542969-19.542969h126.515625c10.773437 0 19.542969 8.769531 19.542969 19.542969zm0 0"/><path d="m354.726562 407.148438h-12.257812c-3.132812-35.664063-28.390625-65.945313-63.019531-75.296876-2.308594-24.203124-13.152344-46.574218-30.910157-63.5-18.824218-17.949218-43.410156-27.828124-69.390624-27.925781l-61.125-167.925781c14.847656-15.199219 21.90625-36.980469 18.535156-58.0625-.8125-5.0625-3.816406-9.460938-8.242188-12.0625-4.429687-2.605469-9.738281-3.09375-14.566406-1.335938l-93.324219 33.96875c-4.828125 1.757813-8.582031 5.542969-10.300781 10.386719-1.71875 4.835938-1.191406 10.136719 1.441406 14.539063 10.96875 18.3125 30.371094 30.460937 51.511719 32.5625l59.949219 164.722656c-11.851563 7.871094-22.121094 18.300781-30.007813 30.839844-2.207031 3.507812-1.152343 8.136718 2.355469 10.34375 3.503906 2.203125 8.132812 1.148437 10.339844-2.355469 29.390625-46.726563 93.265625-54.21875 132.476562-16.839844 16.3125 15.554688 25.777344 36.496094 26.65625 58.972657.132813 3.46875 2.628906 6.390624 6.035156 7.066406 32.976563 6.539062 56.914063 35.730468 56.917969 69.40625 0 4.140625 3.355469 7.5 7.5 7.5h19.425781c11.660157 0 21.144532 9.484375 21.144532 21.140625v15.136719h-360.871094v-15.136719c0-11.65625 9.484375-21.140625 21.140625-21.140625h14.230469c4.140625 0 7.5-3.359375 7.5-7.5 0-19.667969 13.242187-37.03125 32.203125-42.222656 3.957031-1.082032 6.308593-5.144532 5.277343-9.113282-2.191406-8.441406-3.085937-17.1875-2.660156-25.996094.257813-5.328124 1.023438-10.652343 2.269532-15.820312.972656-4.023438-1.507813-8.074219-5.53125-9.046875-4.027344-.96875-8.078126 1.503906-9.050782 5.53125-1.464844 6.082031-2.363281 12.34375-2.667968 18.609375-.386719 7.980469.152343 15.917969 1.605468 23.6875-19.472656 8.003906-33.265625 25.996094-35.960937 46.871094h-7.210938c-19.929687-.003906-36.144531 16.210937-36.144531 36.140625v19.324219c0 5.960937 4.851562 10.808593 10.8125 10.808593h369.246094c5.960937 0 10.8125-4.847656 10.8125-10.808593v-19.324219c0-19.929688-16.214844-36.144531-36.144532-36.144531zm-330.289062-354.921876c-.449219-.75-.304688-1.460937-.179688-1.816406.128907-.359375.464844-1.007812 1.296876-1.308594l93.324218-33.96875c1.269532-.464843 2.652344.347657 2.867188 1.675782 3.960937 24.761718-10.171875 49.121094-34.058594 57.8125-6.171875 2.246094-12.597656 3.304687-19.085938 3.191406-18.011718-.363281-34.933593-10.167969-44.164062-25.585938zm54.492188 39.953126c4.714843-.65625 9.359374-1.8125 13.890624-3.460938 4.535157-1.648438 8.835938-3.75 12.863282-6.273438l57.914062 159.117188c-9.523437 1.4375-18.707031 4.226562-27.3125 8.226562zm0 0"/><path d="m238.359375 386.566406c3.105469-2.097656 6.738281-3.207031 10.507813-3.207031 10.371093 0 18.808593 8.4375 18.808593 18.808594 0 4.140625 3.359375 7.5 7.5 7.5 4.144531 0 7.5-3.359375 7.5-7.5 0-18.644531-15.164062-33.808594-33.808593-33.808594-6.773438 0-13.3125 1.996094-18.90625 5.777344-3.429688 2.320312-4.332032 6.980469-2.015626 10.414062 2.320313 3.429688 6.980469 4.332031 10.414063 2.015625zm0 0"/><path d="m103.496094 402.480469c-2.503906 3.300781-1.855469 8.003906 1.449218 10.503906 1.351563 1.027344 2.941407 1.523437 4.519532 1.523437 2.269531 0 4.511718-1.023437 5.984375-2.972656 3.234375-4.265625 8.152343-6.710937 13.5-6.710937 4.132812 0 8.113281 1.503906 11.207031 4.238281 3.101562 2.746094 7.839844 2.453125 10.582031-.648438 2.746094-3.101562 2.457031-7.839843-.648437-10.585937-5.835938-5.160156-13.34375-8.003906-21.140625-8.003906-10.082031 0-19.359375 4.613281-25.453125 12.65625zm0 0"/><path d="m152.839844 326.34375c2.851562 0 5.574218-1.636719 6.832031-4.398438.847656-1.871093 2.054687-3.535156 3.582031-4.941406 6.234375-5.746094 15.980469-5.34375 21.726563.890625 2.804687 3.042969 7.550781 3.238281 10.597656.433594 3.046875-2.808594 3.242187-7.550781.433594-10.597656-11.347657-12.316407-30.601563-13.105469-42.921875-1.757813-3.011719 2.777344-5.394532 6.0625-7.074219 9.769532-1.714844 3.773437-.042969 8.21875 3.726563 9.929687 1.007812.457031 2.058593.671875 3.097656.671875zm0 0"/></svg>