<svg width="114" height="103" viewBox="0 0 114 103" fill="none" xmlns="http://www.w3.org/2000/svg">
<path d="M114 51.176C114 48.1544 112.697 45.3139 110.331 43.178L66.2224 3.33398C61.4234 -1.00348 53.7813 -1.12358 48.8246 3.06079C48.8208 3.06401 48.805 3.07769 48.8012 3.08091C48.7039 3.1646 48.6068 3.24828 48.5126 3.33358L47.8932 3.89304C39.4225 -1.23965 27.9528 -0.302797 20.6396 6.30307C16.5701 9.97828 14.3289 14.8718 14.3289 20.0821C14.3289 25.2925 16.5701 30.1864 20.6396 33.8624L40.2097 51.5403C41.323 52.5462 41.9361 53.8862 41.9355 55.3135C41.935 56.741 41.3212 58.0814 40.2071 59.0879L37.0765 61.9173L31.7955 57.147C29.4549 55.0325 25.646 55.0325 23.3054 57.147C20.9648 59.2613 20.9648 62.7017 23.3054 64.8162L24.3341 65.7454C22.1941 65.9231 20.2076 66.7607 18.6689 68.1506L13.8238 72.5253C13.1715 73.1143 13.1712 74.0695 13.8233 74.6587C14.4754 75.2482 15.5328 75.248 16.1851 74.6591L21.0305 70.2841C22.1431 69.279 23.6218 68.7256 25.1946 68.7256C26.7669 68.7256 28.245 69.279 29.3571 70.2843L36.2164 76.4785C38.5069 78.5534 38.506 81.9247 36.2126 83.9963L20.2403 98.4243C19.1288 99.4292 17.6505 99.9824 16.0775 99.9824C14.5046 99.9824 13.0263 99.429 11.9141 98.4237L5.0588 92.2333C2.76428 90.1588 2.76428 86.7836 5.05836 84.7095L11.4867 78.9027C12.139 78.3136 12.139 77.3585 11.4867 76.7692C10.8346 76.18 9.77723 76.18 9.12493 76.7692L2.69658 82.5771C-0.898972 85.8274 -0.898972 91.116 2.69725 94.3669L9.55252 100.557C11.2947 102.133 13.6122 103 16.0777 103C18.5433 103 20.8608 102.133 22.6025 100.558L38.5744 86.1301C40.1554 84.702 41.0409 82.8798 41.2317 81.0095L42.2648 81.9428C43.4351 82.9999 44.9725 83.5284 46.5098 83.5284C48.0471 83.5284 49.5844 82.9999 50.7548 81.9428C51.8885 80.9186 52.5132 79.5567 52.5132 78.1082C52.5132 76.6598 51.8888 75.2979 50.7548 74.2737L45.4749 69.5045L48.6077 66.6761C55.542 60.4102 55.5418 50.2162 48.6074 43.9523L29.0376 26.2746C25.2598 22.8605 25.2598 17.3053 29.0373 13.8915C31.6935 11.4921 35.6706 10.7441 39.1211 11.8321C36.9707 13.9279 35.7902 16.6367 35.7902 19.5106C35.7902 22.5326 37.0932 25.3735 39.459 27.5092L83.5671 67.3526C84.9984 68.6473 86.733 69.5981 88.6425 70.1426V83.1828C88.6425 86.7777 91.8234 89.7506 95.7325 89.81C95.775 89.8106 95.8171 89.811 95.8596 89.811C97.7851 89.811 99.5911 89.1357 100.955 87.9033C102.319 86.6747 103.069 85.0384 103.069 83.2952V65.7352L110.331 59.1754C112.697 57.0383 114 54.1976 114 51.176ZM48.3934 79.8093C47.355 80.7474 45.6653 80.7474 44.6268 79.8093L25.6674 62.683C24.6289 61.7449 24.6289 60.2187 25.6674 59.2806C26.7058 58.3427 28.3955 58.3427 29.434 59.2806L48.3934 76.4069C49.4319 77.345 49.4319 78.8715 48.3934 79.8093ZM26.6758 11.7584C21.597 16.3486 21.597 23.8173 26.676 28.4076L46.2461 46.0856C51.8785 51.1734 51.8783 59.4532 46.2463 64.5424L43.1133 67.3709L39.4381 64.0508L42.569 61.2211C44.3135 59.6453 45.2747 57.5475 45.2753 55.3145C45.276 53.0809 44.3157 50.9829 42.5713 49.4071L23.0012 31.7291C19.5624 28.6229 17.6687 24.4866 17.6687 20.0821C17.6687 15.6777 19.5624 11.542 23.0012 8.4365C29.0238 2.99622 38.3815 2.10362 45.4789 6.07414L41.656 9.52745C36.7262 7.34172 30.619 8.1963 26.6758 11.7584ZM99.7294 83.2954C99.7294 84.2313 99.3271 85.1092 98.5953 85.7688C97.8457 86.446 96.848 86.8083 95.7895 86.7934C93.6905 86.7616 91.9828 85.1418 91.9828 83.1828V60.7379C91.9828 59.9048 91.2352 59.2293 90.3128 59.2293C89.3905 59.2293 88.6427 59.9046 88.6427 60.7379V66.9161C87.6396 66.5067 86.7214 65.9361 85.93 65.2202L41.8205 25.3755C40.0857 23.8094 39.1303 21.7265 39.1303 19.5106C39.1303 17.2947 40.0857 15.2118 41.8208 13.6452L48.2952 7.79677V24.5008C48.2952 27.8668 51.2752 30.644 54.9385 30.6917C56.772 30.7177 58.5011 30.0822 59.8032 28.9085C61.0764 27.7584 61.7777 26.2295 61.7777 24.6034V24.181C61.7777 22.5776 63.1716 21.2519 64.8842 21.2262C65.7541 21.2151 66.5632 21.5104 67.1756 22.0651C67.7725 22.6028 68.1014 23.3194 68.1014 24.0826V42.3782C68.1014 46.0304 71.3896 49.0015 75.4315 49.0015C77.3895 49.0015 79.2308 48.3125 80.6147 47.0624C82.0006 45.8132 82.764 44.1495 82.764 42.3782V41.4588C82.764 39.9512 84.0684 38.7124 85.6714 38.6971C86.4613 38.6891 87.2183 38.9663 87.7806 39.4728C88.3365 39.9764 88.6425 40.6437 88.6425 41.3524V54.7562C88.6425 55.5893 89.3901 56.2648 90.3125 56.2648C91.2348 56.2648 91.9826 55.5895 91.9826 54.7562V41.3524C91.9826 39.8396 91.3303 38.4155 90.1424 37.3396C88.9373 36.2539 87.3368 35.6622 85.6369 35.6804C82.2112 35.7129 79.4241 38.305 79.4241 41.459V42.3784C79.4241 43.3426 79.0092 44.2476 78.2542 44.9282C77.4999 45.6096 76.4975 45.9848 75.4315 45.9848C73.2314 45.9848 71.4413 44.3669 71.4413 42.3784V24.0828C71.4413 22.5123 70.764 21.0373 69.5374 19.9318C68.282 18.7952 66.6082 18.1823 64.829 18.2096C61.3049 18.2631 58.4376 20.9419 58.4376 24.1812V24.6036C58.4376 25.4238 58.0837 26.1951 57.4428 26.7741C56.7849 27.3669 55.9117 27.6848 54.9857 27.6753C53.1381 27.6512 51.6351 26.2273 51.6351 24.5013V4.85323C55.2656 2.21567 60.5078 2.43736 63.8602 5.46721L107.97 45.3118C109.704 46.878 110.66 48.9607 110.66 51.176C110.66 51.8499 110.57 52.5112 110.398 53.1497C109.564 51.3351 107.582 50.0555 105.274 50.0555C102.216 50.0555 99.7291 52.3021 99.7291 55.0638V83.2954H99.7294ZM103.069 55.0638C103.069 53.9658 104.058 53.0726 105.276 53.0726C106.491 53.0726 107.48 53.9658 107.48 55.0638V57.4841L103.069 61.4687V55.0638Z" fill="white"/>
</svg>
