<svg width="107" height="109" viewBox="0 0 107 109" fill="none" xmlns="http://www.w3.org/2000/svg">
<path d="M105.198 88.9779H89.6035V73.7225C89.6035 72.8452 88.7964 72.1333 87.8016 72.1333H60.9279V47.6938C60.9279 46.8164 60.1217 46.1046 59.126 46.1046C58.1311 46.1046 57.324 46.8164 57.324 47.6938V72.1333H41.829V33.1784H57.324V41.337C57.324 42.2144 58.1311 42.9262 59.126 42.9262C60.1217 42.9262 60.9279 42.2144 60.9279 41.337V31.5892C60.9279 30.711 60.1217 30 59.126 30H1.80196C0.806191 30 0 30.711 0 31.5892C0.000938522 33.0906 0.023463 78.2186 0.0262786 84.9139C0.0262786 85.7921 0.833408 86.5031 1.82824 86.5031C2.82401 86.5031 3.6302 85.7921 3.6302 84.9139V66.8667H19.1252V105.822H3.6302V91.2706C3.6302 90.3924 2.82401 89.6814 1.82824 89.6814C0.833408 89.6814 0.0262786 90.3924 0.0262786 91.2706V107.411C0.0262786 108.289 0.833408 109 1.82824 109H105.198C106.194 109 107 108.289 107 107.411V90.5671C107 89.6889 106.194 88.9779 105.198 88.9779ZM85.9996 75.3117V88.9779H41.829V75.3117H85.9996ZM22.7291 88.9779V50.0229H38.2251V88.9779H22.7291ZM3.60393 33.1784H38.2251V46.8446H3.60393V33.1784ZM3.60393 63.6883V50.0229H19.1261V63.6883H3.60393ZM22.7291 92.1563H66.9007V105.822H22.7291V92.1563ZM103.396 105.822H70.5046V92.1563H103.396V105.822Z" fill="white"/>
<path d="M105.211 0H57.7887C56.8012 0 56 0.709218 56 1.58521V18.3868C56 19.2628 56.8012 19.972 57.7887 19.972H84.4644V60.4148C84.4644 61.2908 85.2646 62 86.2531 62H105.211C106.2 62 107 61.2908 107 60.4148V1.58521C107 0.709218 106.2 0 105.211 0ZM59.5774 3.17043H103.423V16.8016H59.5774V3.17043ZM103.423 58.8296H88.0418V19.972H103.423V58.8296Z" fill="white"/>
</svg>
