<svg id="Capa_1" fill="#FFF" enable-background="new 0 0 512 512" height="512" viewBox="0 0 512 512" width="512" xmlns="http://www.w3.org/2000/svg"><g><path d="m156 432h200c5.523 0 10-4.478 10-10v-372c0-5.522-4.477-10-10-10h-200c-5.523 0-10 4.478-10 10v372c0 5.522 4.477 10 10 10zm10-372h180v352h-180z"/><path d="m311.528 187.056-120 60c-4.94 2.47-6.942 8.477-4.472 13.416 2.47 4.94 8.477 6.942 13.417 4.473l120-60c4.94-2.47 6.942-8.477 4.472-13.416-2.471-4.94-8.476-6.943-13.417-4.473z"/><path d="m220.472 194.944 80-40c4.94-2.47 6.942-8.477 4.472-13.416-2.47-4.94-8.476-6.942-13.417-4.473l-80 40c-4.94 2.47-6.942 8.477-4.472 13.416 2.471 4.941 8.478 6.943 13.417 4.473z"/><path d="m291.528 257.056-80 40c-4.94 2.47-6.942 8.477-4.472 13.416 2.47 4.94 8.477 6.942 13.417 4.473l80-40c4.94-2.47 6.942-8.477 4.472-13.416s-8.476-6.942-13.417-4.473z"/><circle cx="256" cy="502" r="10"/><path d="m36 492c-5.523 0-10 4.478-10 10s4.477 10 10 10h175c5.523 0 10-4.478 10-10s-4.477-10-10-10h-125v-226h20v156c0 27.57 22.43 50 50 50h200c27.57 0 50-22.43 50-50v-156h20v226h-125c-5.523 0-10 4.478-10 10s4.477 10 10 10h175c5.523 0 10-4.478 10-10s-4.477-10-10-10h-30v-226h10c5.523 0 10-4.478 10-10s-4.477-10-10-10h-50v-196c0-27.57-22.43-50-50-50h-200c-27.57 0-50 22.43-50 50v196h-50c-5.523 0-10 4.478-10 10s4.477 10 10 10h10v226zm90-442c0-16.542 13.458-30 30-30h200c16.542 0 30 13.458 30 30v372c0 16.542-13.458 30-30 30h-200c-16.542 0-30-13.458-30-30z"/></g></svg>