<?xml version="1.0" encoding="UTF-8" standalone="no"?>
<svg
   xmlns:osb="http://www.openswatchbook.org/uri/2009/osb"
   xmlns:dc="http://purl.org/dc/elements/1.1/"
   xmlns:cc="http://creativecommons.org/ns#"
   xmlns:rdf="http://www.w3.org/1999/02/22-rdf-syntax-ns#"
   xmlns:svg="http://www.w3.org/2000/svg"
   xmlns="http://www.w3.org/2000/svg"
   xmlns:xlink="http://www.w3.org/1999/xlink"
   xmlns:sodipodi="http://sodipodi.sourceforge.net/DTD/sodipodi-0.dtd"
   xmlns:inkscape="http://www.inkscape.org/namespaces/inkscape"
   width="300"
   height="100"
   viewBox="0 0 79.375002 100"
   version="1.1"
   id="SVGRoot"
   sodipodi:docname="logo.svg"
   inkscape:version="1.0.2-2 (e86c870879, 2021-01-15)">
  <defs
     id="defs2893">
    <linearGradient
       id="linearGradient3807"
       osb:paint="solid">
      <stop
         style="stop-color:#ffffff;stop-opacity:1;"
         offset="0"
         id="stop3805" />
    </linearGradient>
    <linearGradient
       id="linearGradient3801"
       osb:paint="solid">
      <stop
         style="stop-color:#000000;stop-opacity:1;"
         offset="0"
         id="stop3799" />
    </linearGradient>
    <linearGradient
       id="linearGradient3795"
       osb:paint="solid">
      <stop
         style="stop-color:#005500;stop-opacity:1;"
         offset="0"
         id="stop3793" />
    </linearGradient>
    <linearGradient
       id="linearGradient3763"
       osb:paint="solid">
      <stop
         style="stop-color:#005500;stop-opacity:1;"
         offset="0"
         id="stop3761" />
    </linearGradient>
    <linearGradient
       inkscape:collect="always"
       xlink:href="#linearGradient3807"
       id="linearGradient3809"
       x1="68.658997"
       y1="90.619797"
       x2="88.767334"
       y2="90.619797"
       gradientUnits="userSpaceOnUse" />
    <linearGradient
       inkscape:collect="always"
       xlink:href="#linearGradient3795"
       id="linearGradient3803"
       x1="71.338539"
       y1="95.779167"
       x2="75.538544"
       y2="95.779167"
       gradientUnits="userSpaceOnUse"
       gradientTransform="matrix(2.771262,0,0,3.1788001,-307.55034,-136.15365)" />
  </defs>
  <sodipodi:namedview
     id="base"
     pagecolor="#ffffff"
     bordercolor="#666666"
     borderopacity="1.0"
     inkscape:pageopacity="0.0"
     inkscape:pageshadow="2"
     inkscape:zoom="3.7965804"
     inkscape:cx="197.13111"
     inkscape:cy="21.778173"
     inkscape:document-units="mm"
     inkscape:current-layer="layer1"
     inkscape:document-rotation="0"
     showgrid="true"
     inkscape:window-width="1920"
     inkscape:window-height="1046"
     inkscape:window-x="-11"
     inkscape:window-y="-11"
     inkscape:window-maximized="1"
     units="px">
    <inkscape:grid
       type="xygrid"
       id="grid3569" />
  </sodipodi:namedview>
  <metadata
     id="metadata2896">
    <rdf:RDF>
      <cc:Work
         rdf:about="">
        <dc:format>image/svg+xml</dc:format>
        <dc:type
           rdf:resource="http://purl.org/dc/dcmitype/StillImage" />
        <dc:title></dc:title>
      </cc:Work>
    </rdf:RDF>
  </metadata>
  <g
     inkscape:label="Layer 1"
     inkscape:groupmode="layer"
     id="layer1"
     style="display:inline"
     transform="translate(0,-110)">
    <text
       xml:space="preserve"
       style="font-style:normal;font-weight:normal;font-size:22.5778px;line-height:1.25;font-family:sans-serif;fill:#000000;fill-opacity:1;stroke:none;stroke-width:0.264583"
       x="85.669655"
       y="125.73953"
       id="text2908-7" />
    <g
       id="g3747"
       style="display:inline"
       transform="matrix(2.2321889,0,0,2.2321889,-269.93562,-41.196903)">
      <g
         aria-label="ART"
         transform="scale(0.85257471,1.1729177)"
         id="text2908"
         style="font-style:normal;font-weight:normal;font-size:26.4773px;line-height:0;font-family:sans-serif;fill:#000000;fill-opacity:1;stroke:#000000;stroke-width:0.308258;stroke-opacity:0">
        <path
           d="m 115.37939,79.534478 q -1.18941,2.766671 -1.7324,4.240505 -0.54299,1.473834 -0.54299,1.90047 h -1.38334 q 0,-0.413708 3.59409,-8.209514 3.60701,-7.795807 3.60701,-8.636151 h 1.46091 q 0,0.762774 3.54237,8.468082 3.5553,7.69238 3.5553,8.377583 h -1.33162 q 0,-0.840344 -2.32711,-6.140975 z m 4.26636,-9.644564 h -0.11635 q 0,0.374923 -3.83973,8.791291 h 7.73117 q -1.9134,-4.473216 -2.84425,-6.515898 -0.93084,-2.055611 -0.93084,-2.275393 z"
           style="font-style:normal;font-variant:normal;font-weight:normal;font-stretch:normal;font-size:26.4773px;line-height:0.15;font-family:Candara;-inkscape-font-specification:Candara;fill:#333333;stroke:#000000;stroke-width:0.308258;stroke-opacity:0"
           id="path49" />
        <path
           d="m 133.94453,68.765146 q 0.74984,0 1.21526,-0.01293 2.68911,0 4.03366,1.021341 1.35747,1.021341 1.35747,3.038167 0,1.603117 -0.85327,2.766671 -0.85327,1.163553 -2.36589,1.809971 v 0.07757 q 1.51262,0.413707 2.61153,2.352963 1.11184,1.939255 2.54689,5.856551 h -1.16355 q -0.89206,-2.365891 -1.83583,-4.253433 -0.93084,-1.900471 -1.60312,-2.456391 -0.65935,-0.568848 -1.22819,-0.762773 -0.56885,-0.206854 -2.43054,-0.206854 -1.8229,0 -2.49517,0.02586 0,5.352345 0.16807,7.653595 h -1.4092 q 0.12929,-2.637387 0.19393,-4.628356 0.0776,-1.990969 0.0776,-4.240505 0,-4.279291 -0.21978,-7.976804 h 1.51262 z m 0.60763,8.274156 q 2.1849,0 3.51652,-1.085983 1.34455,-1.098911 1.34455,-2.883026 0,-1.809972 -1.15063,-2.585674 -1.15062,-0.775702 -3.82679,-0.775702 -1.59019,0 -2.75375,0.07757 0.0517,0.917914 0.0517,2.482247 0,1.34455 -0.0129,2.081468 l -0.0129,2.663244 q 0.2715,0.02586 0.9567,0.02586 z"
           style="font-style:normal;font-variant:normal;font-weight:normal;font-stretch:normal;font-size:26.4773px;line-height:0.15;font-family:Candara;-inkscape-font-specification:Candara;fill:#333333;stroke:#000000;stroke-width:0.308258;stroke-opacity:0"
           id="path51" />
        <path
           d="m 154.82384,69.851129 q -2.84424,-0.06464 -3.72337,-0.06464 -0.12928,3.025239 -0.12928,6.994248 0,4.227577 0.12928,8.894718 h -1.34455 q 0.20686,-5.416987 0.20686,-8.868861 0,-1.8229 -0.0517,-3.33552 -0.0388,-1.512619 -0.12928,-3.684585 -1.02134,0 -3.02524,0.06464 l -2.55982,0.06464 v -1.085983 h 12.48881 l -0.0517,1.060126 z"
           style="font-style:normal;font-variant:normal;font-weight:normal;font-stretch:normal;font-size:26.4773px;line-height:0.15;font-family:Candara;-inkscape-font-specification:Candara;fill:#333333;stroke:#000000;stroke-width:0.308258;stroke-opacity:0"
           id="path53" />
      </g>
    </g>
    <rect
       style="display:inline;fill:url(#linearGradient3803);fill-opacity:1;fill-rule:evenodd;stroke:#005500;stroke-width:0.733224;stroke-opacity:1"
       id="rect3679"
       width="10.906075"
       height="28.595968"
       x="-109.48595"
       y="154.01123" />
    <rect
       style="display:inline;fill:#ff7b29;fill-opacity:1;fill-rule:evenodd;stroke:#ff7b29;stroke-width:0.733224;stroke-opacity:1"
       id="rect3679-5"
       width="10.906075"
       height="35.928265"
       x="-94.82135"
       y="146.67896" />
    <path
       id="rect3679-5-1"
       style="display:inline;fill:#0466c8;fill-opacity:1;fill-rule:evenodd;stroke:#0466c8;stroke-width:0.733224;stroke-opacity:1"
       d="m -80.156743,139.34662 h 10.906067 v 43.26058 h -10.906067 z" />
    <circle
       id="path3749"
       style="display:inline;fill:#008037;stroke:#333333;stroke-width:0.751928"
       cx="-99.940933"
       cy="164.3654"
       r="0.018508373" />
    <circle
       id="path3751"
       style="display:inline;fill:#008037;stroke:#333333;stroke-width:0.751928"
       cx="-99.940933"
       cy="164.3654"
       r="0.018508373" />
    <circle
       id="path3753"
       style="display:inline;fill:#008037;stroke:#333333;stroke-width:0.751928"
       cx="-103.16198"
       cy="174.02858"
       r="0.018508373" />
    <path
       style="display:inline;fill:#333333;fill-opacity:1;stroke-width:0.109998"
       d="m 47.31433,182.64441 c -0.02665,-0.0756 -3.021593,-9.83935 -6.655308,-21.69716 -3.633737,-11.85782 -6.628245,-21.62153 -6.654457,-21.69716 -0.03732,-0.10752 0.533669,-0.13749 2.619515,-0.13749 h 2.667198 l 4.604304,15.81224 c 2.532374,8.69674 4.637276,15.84953 4.677574,15.89509 0.04026,0.0455 2.077068,-7.05758 4.526169,-15.78476 l 4.452909,-15.86758 2.553641,-0.0295 c 1.404515,-0.0162 2.555841,0.009 2.558517,0.055 0.0034,0.0465 -2.905404,9.87239 -6.462401,21.83534 l -6.467256,21.75082 -1.18593,0.001 c -0.850545,0.001 -1.199666,-0.0375 -1.234475,-0.13616 z"
       id="path200" />
    <path
       style="display:inline;fill:#333333;fill-opacity:1;stroke-width:0.107971"
       d="m 77.373342,182.7326 c -4.036235,-0.662 -7.084402,-3.20369 -9.326577,-7.7769 -1.326119,-2.70484 -2.121427,-5.54417 -2.600892,-9.28547 -0.24525,-1.91364 -0.279277,-7.45805 -0.05694,-9.28549 0.942925,-7.75198 4.251984,-13.78223 8.817101,-16.06769 1.677894,-0.84001 3.109733,-1.15364 5.266978,-1.15364 3.967695,0 7.044864,1.2088 9.549132,3.75118 2.108837,2.1409 3.793741,5.48366 4.619242,9.1643 1.239181,5.52505 1.174475,12.76342 -0.161602,18.07211 -1.507071,5.98833 -4.629212,10.17445 -8.783246,11.77642 -2.140595,0.82549 -5.169095,1.15849 -7.323165,0.80518 z m 4.22862,-5.20125 c 4.048518,-1.00113 6.656204,-4.90351 7.601319,-11.37526 0.573887,-3.92984 0.439495,-9.2484 -0.325541,-12.88227 -0.85549,-4.06343 -2.671463,-6.86054 -5.273534,-8.12259 -1.262614,-0.6124 -2.072565,-0.80251 -3.72976,-0.87544 -1.670385,-0.0735 -2.601323,0.10072 -3.863449,0.72296 -2.91263,1.43601 -4.801237,5.07315 -5.603861,10.79215 -0.270952,1.93037 -0.270952,7.67903 0,9.60939 0.638674,4.55075 2.046422,8.149 4.008878,10.24679 0.959655,1.02586 2.403369,1.81188 3.786969,2.06183 0.723672,0.13071 2.534937,0.0362 3.398979,-0.17755 z"
       id="path202" />
    <path
       style="display:inline;fill:#333333;fill-opacity:1;stroke-width:0.108367"
       d="m 113.22978,182.81807 c -0.74861,-0.0772 -2.54351,-0.49099 -3.29641,-0.75971 -5.99007,-2.13794 -9.936049,-8.69029 -10.677519,-17.7302 -0.54338,-6.62494 0.63474,-12.92343 3.224089,-17.23654 2.59844,-4.32824 5.92958,-6.80576 10.46765,-7.7852 1.59668,-0.34461 4.97404,-0.34702 6.43703,-0.005 2.02352,0.47366 3.81141,1.39278 5.17713,2.66147 l 0.7367,0.68436 -0.95148,2.26865 c -0.52332,1.24775 -0.96466,2.28242 -0.98075,2.29929 -0.0157,0.0169 -0.48692,-0.31556 -1.04621,-0.73869 -1.12565,-0.8516 -3.02047,-1.83312 -4.10535,-2.1266 -0.97415,-0.2635 -3.31733,-0.26313 -4.46623,5.9e-4 -3.34094,0.76724 -5.90848,2.9886 -7.60938,6.5834 -1.27424,2.69309 -1.86241,5.49583 -1.97778,9.42471 -0.075,2.55092 0.0554,4.34282 0.46403,6.38607 1.05287,5.26342 3.87398,9.11988 7.62394,10.42201 1.48345,0.5151 3.43117,0.72487 4.88173,0.52575 1.84911,-0.25382 3.23276,-0.89493 4.50987,-2.08959 l 0.69176,-0.64711 v -5.02665 -5.02665 h -2.49244 -2.49244 v -2.43826 -2.43826 h 4.82234 4.82232 v 9.25534 9.25535 l -0.55019,0.49468 c -2.84528,2.55816 -8.74213,4.24801 -13.21241,3.78623 z"
       id="path204" />
    <path
       style="display:inline;fill:#333333;fill-opacity:1;stroke-width:0.109857"
       d="m 145.69442,182.75957 c -2.37831,-0.2547 -4.57619,-1.0707 -6.14433,-2.28116 -2.25683,-1.74208 -3.64414,-4.21347 -4.31926,-7.69447 -0.23161,-1.19422 -0.23482,-1.39931 -0.27187,-17.43989 l -0.0376,-16.23145 h 2.4178 2.4178 l 0.0306,15.79202 0.0306,15.79202 0.24913,0.87886 c 1.15414,4.07151 4.13446,6.33176 7.9679,6.04271 2.06475,-0.15567 3.40102,-0.74256 4.75021,-2.08627 0.72125,-0.71834 0.97858,-1.07256 1.39783,-1.92408 0.28262,-0.574 0.62514,-1.46384 0.76123,-1.97744 l 0.24737,-0.93378 0.0326,-15.79202 0.0325,-15.79202 h 2.4178 2.41779 l -0.0379,16.23145 c -0.0415,17.75881 -6e-5,16.61077 -0.68591,18.97729 -1.15385,3.98126 -4.0858,6.94628 -7.91135,8.00058 -1.53322,0.42253 -4.09062,0.61675 -5.76304,0.43765 z"
       id="path206" />
    <path
       style="display:inline;fill:#333333;fill-opacity:1;stroke-width:0.112283"
       d="m 167.48911,160.95233 v -21.95141 h 10.94765 10.94762 v 2.63866 2.63866 h -8.47738 -8.47743 v 6.17559 6.1756 h 6.06334 6.06328 v 2.52636 2.52638 h -6.06328 -6.06334 v 7.97212 7.97215 h 8.30898 8.30899 v 2.63867 2.63869 h -10.77921 -10.77922 z"
       id="path208" />
    <path
       style="display:inline;fill:#005500;fill-opacity:1;stroke-width:0.0175056"
       d="m -98.830292,165.40885 c -0.06998,-0.0198 -0.162691,-0.0964 -0.202309,-0.16687 -0.08552,-0.1522 -0.04378,-0.3373 0.100831,-0.44765 0.05546,-0.0423 0.07781,-0.0478 0.195288,-0.0478 0.119002,0 0.139383,0.006 0.198045,0.05 0.09924,0.076 0.141368,0.15614 0.142661,0.2717 0.0023,0.18621 -0.128915,0.33128 -0.310513,0.34393 -0.04957,0.003 -0.105368,0.002 -0.123981,-0.003 z m 0.112627,-0.32966 c 0,-0.0145 -0.0079,-0.0263 -0.01747,-0.0263 -0.0091,0 -0.01747,0.0118 -0.01747,0.0263 0,0.0145 0.0079,0.0262 0.01747,0.0262 0.0091,0 0.01747,-0.0118 0.01747,-0.0262 z"
       id="use426" />
    <path
       style="display:inline;fill:#005500;fill-opacity:1;stroke-width:0.0175056"
       d="m -98.671265,165.44223 c -0.06998,-0.0198 -0.16268,-0.0964 -0.202297,-0.16688 -0.08552,-0.15219 -0.04378,-0.33729 0.100831,-0.44765 0.05546,-0.0423 0.07781,-0.0477 0.1953,-0.0477 0.119001,0 0.139383,0.006 0.198033,0.05 0.09924,0.076 0.141368,0.15615 0.142661,0.2717 0.0023,0.18622 -0.128903,0.33129 -0.310502,0.34393 -0.04957,0.003 -0.105368,0.002 -0.12398,-0.003 z m 0.112741,-0.32967 c 0,-0.0145 -0.0079,-0.0263 -0.01747,-0.0263 -0.0091,0 -0.01747,0.0118 -0.01747,0.0263 0,0.0145 0.0079,0.0262 0.01747,0.0262 0.0091,0 0.01747,-0.0118 0.01747,-0.0262 z"
       id="use428" />
    <path
       style="display:inline;fill:#005500;fill-opacity:1;stroke-width:0.0175056"
       d="m -99.260271,164.72912 c -0.06998,-0.0198 -0.16268,-0.0964 -0.20231,-0.16688 -0.08552,-0.1522 -0.04378,-0.33729 0.100832,-0.44766 0.05546,-0.0423 0.07781,-0.0477 0.195288,-0.0477 0.119001,0 0.139383,0.006 0.198045,0.05 0.09924,0.076 0.141367,0.15613 0.14266,0.2717 0.0023,0.1862 -0.128903,0.33128 -0.310512,0.34392 -0.04956,0.003 -0.105368,0.002 -0.123981,-0.003 z m 0.112627,-0.32967 c 0,-0.0145 -0.0079,-0.0263 -0.01747,-0.0263 -0.0091,0 -0.01747,0.0118 -0.01747,0.0263 0,0.0145 0.0079,0.0262 0.01747,0.0262 0.0091,0 0.01747,-0.0118 0.01747,-0.0262 z"
       id="use430" />
    <path
       style="display:inline;fill:#005500;fill-opacity:1;stroke-width:0.0175056"
       d="m -98.941309,164.87722 c -0.06998,-0.0198 -0.16268,-0.0964 -0.202309,-0.16687 -0.08552,-0.15219 -0.04378,-0.33731 0.100831,-0.44765 0.05546,-0.0423 0.07781,-0.0478 0.1953,-0.0478 0.11899,0 0.139372,0.006 0.198033,0.05 0.09924,0.0759 0.141368,0.15615 0.142661,0.2717 0.0023,0.18622 -0.128914,0.33128 -0.310513,0.34393 -0.04957,0.003 -0.105368,0.002 -0.123969,-0.003 z m 0.112741,-0.32967 c 0,-0.0145 -0.0079,-0.0263 -0.01747,-0.0263 -0.0091,0 -0.01747,0.0118 -0.01747,0.0263 0,0.0145 0.0079,0.0262 0.01747,0.0262 0.0091,0 0.01747,-0.0118 0.01747,-0.0262 z"
       id="use432" />
    <path
       style="display:inline;fill:#005500;fill-opacity:1;stroke-width:0.0175056"
       d="m -99.817699,164.72754 c -0.07,-0.0198 -0.16268,-0.0964 -0.202301,-0.16688 -0.0855,-0.15218 -0.0438,-0.33729 0.100831,-0.44765 0.0556,-0.0423 0.0778,-0.0478 0.1953,-0.0478 0.119,0 0.13937,0.006 0.198034,0.05 0.09924,0.0759 0.141367,0.15615 0.14266,0.2717 0.0023,0.18622 -0.128914,0.33129 -0.310514,0.34393 -0.0496,0.003 -0.10537,0.002 -0.12397,-0.003 z m 0.11274,-0.32967 c 0,-0.0145 -0.008,-0.0262 -0.0175,-0.0262 -0.009,0 -0.0175,0.0118 -0.0175,0.0262 0,0.0145 0.008,0.0263 0.0175,0.0263 0.009,0 0.0175,-0.0118 0.0175,-0.0263 z"
       id="use434" />
    <path
       style="display:inline;fill:#005500;fill-opacity:1;stroke-width:0.0175056"
       d="m -99.686519,165.31954 c -0.07,-0.0198 -0.16268,-0.0964 -0.2023,-0.16688 -0.0855,-0.15218 -0.0438,-0.3373 0.10083,-0.44765 0.0555,-0.0423 0.0778,-0.0477 0.1953,-0.0477 0.118993,0 0.139375,0.006 0.198036,0.05 0.09924,0.0759 0.141368,0.15615 0.142661,0.2717 0.0023,0.18621 -0.128903,0.33128 -0.310517,0.34393 -0.0496,0.003 -0.10536,0.002 -0.12396,-0.003 z m 0.11274,-0.32967 c 0,-0.0145 -0.008,-0.0263 -0.0175,-0.0263 -0.009,0 -0.0175,0.0118 -0.0175,0.0263 0,0.0145 0.008,0.0262 0.0175,0.0262 0.009,0 0.0175,-0.0118 0.0175,-0.0262 z"
       id="use436" />
    <path
       style="display:inline;fill:#005500;fill-opacity:1;stroke-width:0.0175056"
       d="m -100.02451,165.16054 c -0.07,-0.0198 -0.16268,-0.0964 -0.2023,-0.16689 -0.0855,-0.15219 -0.0438,-0.33729 0.10083,-0.44764 0.0555,-0.0423 0.0778,-0.0478 0.195301,-0.0478 0.119,0 0.13938,0.006 0.19803,0.05 0.0992,0.076 0.14137,0.15613 0.14266,0.2717 0.002,0.18621 -0.1289,0.33129 -0.3105,0.34392 -0.0496,0.003 -0.105371,0.002 -0.123981,-0.003 z m 0.112621,-0.32968 c 0,-0.0145 -0.008,-0.0262 -0.0175,-0.0262 -0.009,0 -0.0175,0.0118 -0.0175,0.0262 0,0.0145 0.008,0.0262 0.0175,0.0262 0.009,0 0.0175,-0.0118 0.0175,-0.0262 z"
       id="use438" />
    <path
       style="display:inline;fill:#005500;fill-opacity:1;stroke-width:0.0175056"
       d="m -100.44863,164.7894 c -0.07,-0.0198 -0.16268,-0.0964 -0.20231,-0.16689 -0.0855,-0.15219 -0.0438,-0.33729 0.10083,-0.44764 0.0555,-0.0423 0.0778,-0.0478 0.19529,-0.0478 0.119,0 0.13938,0.006 0.19805,0.05 0.0992,0.0759 0.14136,0.15614 0.14266,0.2717 0.002,0.18622 -0.12892,0.33128 -0.31052,0.34393 -0.0496,0.003 -0.10536,0.002 -0.12398,-0.003 z m 0.11263,-0.32968 c 0,-0.0145 -0.008,-0.0262 -0.0175,-0.0262 -0.009,0 -0.0175,0.0118 -0.0175,0.0262 0,0.0145 0.008,0.0262 0.0175,0.0262 0.009,0 0.0175,-0.0118 0.0175,-0.0262 z"
       id="use440" />
    <path
       style="display:inline;fill:#005500;fill-opacity:1;stroke-width:0.0175056"
       d="m -100.12355,164.51759 c -0.0699,-0.0199 -0.16268,-0.0964 -0.2023,-0.16688 -0.0855,-0.15219 -0.0438,-0.33729 0.10083,-0.44765 0.0555,-0.0423 0.0778,-0.0478 0.19529,-0.0478 0.119001,0 0.139381,0.006 0.198041,0.05 0.0992,0.0759 0.14136,0.15614 0.14266,0.2717 0.002,0.18621 -0.12891,0.33129 -0.31051,0.34392 -0.0496,0.003 -0.105371,0.002 -0.123971,-0.003 z m 0.11274,-0.32967 c 0,-0.0145 -0.008,-0.0262 -0.0175,-0.0262 -0.009,0 -0.0175,0.0118 -0.0175,0.0262 0,0.0145 0.008,0.0263 0.0175,0.0263 0.009,0 0.0175,-0.0118 0.0175,-0.0263 z"
       id="use442" />
    <path
       style="display:inline;fill:#005500;fill-opacity:1;stroke-width:0.0175056"
       d="m -100.18251,165.05722 c -0.07,-0.0198 -0.16269,-0.0964 -0.20231,-0.16688 -0.0855,-0.15218 -0.0438,-0.33729 0.10083,-0.44765 0.0555,-0.0423 0.0778,-0.0478 0.19529,-0.0478 0.119001,0 0.139381,0.006 0.198041,0.05 0.0992,0.076 0.14137,0.15615 0.14267,0.27171 0.002,0.18621 -0.12892,0.33128 -0.310521,0.34393 -0.0496,0.003 -0.10537,0.002 -0.12398,-0.003 z m 0.11263,-0.32967 c 0,-0.0145 -0.008,-0.0262 -0.0175,-0.0262 -0.009,0 -0.0175,0.0118 -0.0175,0.0262 0,0.0145 0.008,0.0263 0.0175,0.0263 0.009,0 0.0175,-0.0118 0.0175,-0.0263 z"
       id="use444" />
    <path
       style="display:inline;fill:#005500;fill-opacity:1;stroke-width:0.0175056"
       d="m -100.61794,164.39336 c -0.07,-0.0198 -0.16268,-0.0964 -0.20231,-0.16688 -0.0855,-0.15219 -0.0438,-0.33729 0.10083,-0.44765 0.0555,-0.0423 0.0778,-0.0478 0.19529,-0.0478 0.119,0 0.13938,0.006 0.19804,0.05 0.0992,0.076 0.14137,0.15614 0.14266,0.2717 0.002,0.18621 -0.12891,0.33129 -0.31051,0.34394 -0.0496,0.003 -0.10537,0.002 -0.12398,-0.003 z m 0.11262,-0.32967 c 0,-0.0145 -0.008,-0.0263 -0.0175,-0.0263 -0.009,0 -0.0175,0.0118 -0.0175,0.0263 0,0.0145 0.008,0.0262 0.0175,0.0262 0.009,0 0.0175,-0.0118 0.0175,-0.0262 z"
       id="use446" />
    <path
       style="display:inline;fill:#005500;fill-opacity:1;stroke-width:0.0175056"
       d="m -100.30339,165.26954 c -0.07,-0.0198 -0.1627,-0.0964 -0.2023,-0.16686 -0.0855,-0.1522 -0.0438,-0.33729 0.10083,-0.44766 0.0555,-0.0423 0.0778,-0.0478 0.1953,-0.0478 0.119,0 0.13937,0.006 0.19803,0.05 0.0992,0.0759 0.141371,0.15613 0.142661,0.2717 0.002,0.1862 -0.12891,0.33128 -0.310511,0.34392 -0.0496,0.003 -0.10537,0.002 -0.12397,-0.003 z m 0.11274,-0.32965 c 0,-0.0145 -0.008,-0.0262 -0.0175,-0.0262 -0.009,0 -0.0175,0.0118 -0.0175,0.0262 0,0.0145 0.008,0.0263 0.0175,0.0263 0.009,0 0.0175,-0.0118 0.0175,-0.0263 z"
       id="use448" />
    <path
       style="display:inline;fill:#005500;fill-opacity:1;stroke-width:0.0175056"
       d="m -100.21141,164.96005 c -0.07,-0.0198 -0.16268,-0.0964 -0.2023,-0.16687 -0.0855,-0.15219 -0.0438,-0.33729 0.10083,-0.44765 0.0555,-0.0423 0.0778,-0.0478 0.1953,-0.0478 0.119001,0 0.139381,0.006 0.198041,0.05 0.0992,0.076 0.14136,0.15615 0.14266,0.27172 0.002,0.1862 -0.12891,0.33128 -0.310501,0.34391 -0.0496,0.003 -0.10537,0.002 -0.12398,-0.003 z m 0.11263,-0.32967 c 0,-0.0145 -0.008,-0.0263 -0.0175,-0.0263 -0.009,0 -0.0175,0.0118 -0.0175,0.0263 0,0.0145 0.008,0.0262 0.0175,0.0262 0.009,0 0.0175,-0.0118 0.0175,-0.0262 z"
       id="use450" />
    <path
       style="display:inline;fill:#005500;fill-opacity:1;stroke-width:0.0175056"
       d="m -100.026,164.74104 c -0.07,-0.0198 -0.16269,-0.0964 -0.20231,-0.16688 -0.0855,-0.15219 -0.0438,-0.33729 0.10083,-0.44765 0.0556,-0.0423 0.0778,-0.0478 0.195301,-0.0478 0.11899,0 0.13937,0.006 0.19803,0.05 0.0992,0.076 0.14137,0.15613 0.14267,0.2717 0.002,0.18621 -0.12892,0.33129 -0.31052,0.34393 -0.0496,0.003 -0.105371,0.002 -0.123971,-0.003 z m 0.112741,-0.32967 c 0,-0.0145 -0.008,-0.0263 -0.0175,-0.0263 -0.009,0 -0.0175,0.0118 -0.0175,0.0263 0,0.0145 0.008,0.0262 0.0175,0.0262 0.009,0 0.0175,-0.0118 0.0175,-0.0262 z"
       id="use452" />
    <path
       style="display:inline;fill:#005500;fill-opacity:1;stroke-width:0.0175056"
       d="m -100.85551,165.27155 c -0.07,-0.0198 -0.16268,-0.0964 -0.2023,-0.16687 -0.0855,-0.15219 -0.0438,-0.3373 0.10083,-0.44764 0.0555,-0.0423 0.0778,-0.0478 0.19529,-0.0478 0.119,0 0.13938,0.006 0.19804,0.05 0.0992,0.0759 0.14137,0.15613 0.14266,0.2717 0.002,0.18621 -0.1289,0.33129 -0.31051,0.34392 -0.0496,0.003 -0.10537,0.002 -0.12398,-0.003 z m 0.11263,-0.32967 c 0,-0.0145 -0.008,-0.0262 -0.0175,-0.0262 -0.009,0 -0.0175,0.0118 -0.0175,0.0262 0,0.0145 0.008,0.0263 0.0175,0.0263 0.009,0 0.0175,-0.0118 0.0175,-0.0263 z"
       id="use454" />
    <path
       style="display:inline;fill:#005500;fill-opacity:1;stroke-width:0.0175056"
       d="m -99.851559,165.41301 c -0.07,-0.0199 -0.162681,-0.0964 -0.202301,-0.16688 -0.0855,-0.15219 -0.0438,-0.33729 0.100831,-0.44765 0.0555,-0.0423 0.0778,-0.0478 0.1953,-0.0478 0.11901,0 0.13938,0.006 0.19805,0.05 0.09924,0.076 0.141355,0.15615 0.142648,0.27171 0.0023,0.18621 -0.128898,0.33128 -0.310508,0.34393 -0.0496,0.003 -0.10537,0.002 -0.12397,-0.003 z m 0.11274,-0.32967 c 0,-0.0145 -0.008,-0.0262 -0.0175,-0.0262 -0.009,0 -0.0175,0.0118 -0.0175,0.0262 0,0.0145 0.008,0.0263 0.0175,0.0263 0.009,0 0.0175,-0.0118 0.0175,-0.0263 z"
       id="use456" />
    <path
       style="display:inline;fill:#005500;fill-opacity:1;stroke-width:0.0175056"
       d="m -100.32911,164.97701 c -0.07,-0.0199 -0.16268,-0.0964 -0.20229,-0.16689 -0.0855,-0.15219 -0.0438,-0.33729 0.10083,-0.44764 0.0555,-0.0423 0.0778,-0.0478 0.1953,-0.0478 0.11899,0 0.13937,0.006 0.19803,0.05 0.0992,0.076 0.141361,0.15615 0.142651,0.2717 0.002,0.18622 -0.128901,0.33129 -0.310501,0.34393 -0.0496,0.003 -0.10537,0.002 -0.12398,-0.003 z m 0.11263,-0.32967 c 0,-0.0145 -0.008,-0.0262 -0.0175,-0.0262 -0.009,0 -0.0175,0.0118 -0.0175,0.0262 0,0.0145 0.008,0.0263 0.0175,0.0263 0.009,0 0.0175,-0.0118 0.0175,-0.0263 z"
       id="use458" />
    <path
       style="display:inline;fill:#005500;fill-opacity:1;stroke-width:0.0175056"
       d="m -100.32471,165.04718 c -0.07,-0.0198 -0.16268,-0.0964 -0.20229,-0.16686 -0.0855,-0.1522 -0.0438,-0.3373 0.10083,-0.44765 0.0555,-0.0423 0.0778,-0.0478 0.1953,-0.0478 0.11899,0 0.13937,0.006 0.19804,0.05 0.0992,0.076 0.141361,0.15613 0.142651,0.2717 0.002,0.1862 -0.128901,0.33128 -0.310511,0.34392 -0.0496,0.003 -0.10537,0.002 -0.12397,-0.003 z m 0.11274,-0.32966 c 0,-0.0145 -0.008,-0.0263 -0.0175,-0.0263 -0.009,0 -0.0175,0.0118 -0.0175,0.0263 0,0.0145 0.008,0.0262 0.0175,0.0262 0.009,0 0.0175,-0.0118 0.0175,-0.0262 z"
       id="use460" />
    <path
       style="display:inline;fill:#005500;fill-opacity:1;stroke-width:0.0175056"
       d="m -99.296441,164.8496 c -0.06998,-0.0199 -0.16268,-0.0964 -0.20231,-0.16687 -0.08552,-0.15219 -0.04378,-0.33729 0.100832,-0.44764 0.05546,-0.0423 0.07781,-0.0478 0.195288,-0.0478 0.119001,0 0.139383,0.006 0.198045,0.05 0.09924,0.0759 0.141368,0.15613 0.142661,0.2717 0.0023,0.1862 -0.128915,0.33128 -0.310513,0.34392 -0.04957,0.003 -0.105368,0.002 -0.123981,-0.003 z m 0.11274,-0.32965 c 0,-0.0145 -0.0079,-0.0263 -0.01747,-0.0263 -0.0091,0 -0.01747,0.0118 -0.01747,0.0263 0,0.0145 0.0079,0.0262 0.01747,0.0262 0.0091,0 0.01747,-0.0118 0.01747,-0.0262 z"
       id="use462" />
    <path
       style="display:inline;fill:#005500;fill-opacity:1;stroke-width:0.0175056"
       d="m -99.716109,164.7914 c -0.07,-0.0199 -0.16268,-0.0964 -0.20231,-0.16688 -0.0855,-0.15219 -0.0438,-0.33729 0.10083,-0.44765 0.0555,-0.0423 0.0778,-0.0478 0.19529,-0.0478 0.119,0 0.139382,0.006 0.198043,0.05 0.09924,0.0759 0.141368,0.15613 0.142661,0.27169 0.0023,0.18621 -0.128914,0.33129 -0.310514,0.34392 -0.0496,0.003 -0.10537,0.002 -0.12397,-0.003 z m 0.11263,-0.32966 c 0,-0.0145 -0.008,-0.0263 -0.0175,-0.0263 -0.009,0 -0.0175,0.0118 -0.0175,0.0263 0,0.0145 0.008,0.0262 0.0175,0.0262 0.009,0 0.0175,-0.0118 0.0175,-0.0262 z"
       id="use464" />
    <path
       style="display:inline;fill:#005500;fill-opacity:1;stroke-width:0.0175056"
       d="m -99.653969,164.53086 c -0.07,-0.0198 -0.16268,-0.0964 -0.20231,-0.16688 -0.0855,-0.1522 -0.0438,-0.33729 0.10083,-0.44765 0.0555,-0.0423 0.0778,-0.0477 0.19529,-0.0477 0.119004,0 0.139385,0.006 0.198047,0.05 0.09924,0.076 0.141368,0.15613 0.142661,0.2717 0.0023,0.18621 -0.128903,0.33129 -0.310513,0.34393 -0.04957,0.003 -0.105365,0.002 -0.123985,-0.003 z m 0.11274,-0.32967 c 0,-0.0145 -0.008,-0.0262 -0.0175,-0.0262 -0.009,0 -0.0175,0.0118 -0.0175,0.0262 0,0.0145 0.008,0.0262 0.0175,0.0262 0.009,0 0.0175,-0.0118 0.0175,-0.0262 z"
       id="use466" />
    <path
       style="display:inline;fill:#005500;fill-opacity:1;stroke-width:0.0175056"
       d="m -99.286075,164.59705 c -0.06998,-0.0198 -0.16268,-0.0964 -0.202298,-0.16688 -0.08552,-0.15219 -0.04378,-0.33729 0.100832,-0.44765 0.05546,-0.0423 0.07781,-0.0478 0.195288,-0.0478 0.119001,0 0.139383,0.006 0.198045,0.05 0.09924,0.076 0.141356,0.15615 0.142661,0.2717 0.0023,0.18622 -0.128915,0.33129 -0.310513,0.34394 -0.04957,0.003 -0.105368,0.002 -0.123981,-0.003 z m 0.112741,-0.32967 c 0,-0.0145 -0.0079,-0.0263 -0.01747,-0.0263 -0.0091,0 -0.01747,0.0118 -0.01747,0.0263 0,0.0145 0.0079,0.0262 0.01747,0.0262 0.0091,0 0.01747,-0.0118 0.01747,-0.0262 z"
       id="use468" />
    <path
       style="display:inline;fill:#005500;fill-opacity:1;stroke-width:0.0175056"
       d="m -100.25081,164.21263 c -0.07,-0.0198 -0.16269,-0.0964 -0.20231,-0.16688 -0.0855,-0.15218 -0.0438,-0.33729 0.10083,-0.44765 0.0555,-0.0423 0.0778,-0.0477 0.19529,-0.0477 0.119,0 0.13938,0.006 0.198041,0.05 0.0992,0.0759 0.14136,0.15614 0.14266,0.2717 0.002,0.18621 -0.12891,0.33128 -0.310511,0.34392 -0.0496,0.003 -0.10537,0.002 -0.12398,-0.003 z m 0.11262,-0.32966 c 0,-0.0145 -0.008,-0.0263 -0.0175,-0.0263 -0.009,0 -0.0175,0.0118 -0.0175,0.0263 0,0.0145 0.008,0.0262 0.0175,0.0262 0.009,0 0.0175,-0.0118 0.0175,-0.0262 z"
       id="use470" />
    <path
       style="display:inline;fill:#005500;fill-opacity:1;stroke-width:0.0175056"
       d="m -99.940819,164.57729 c -0.07,-0.0198 -0.162681,-0.0964 -0.202311,-0.16688 -0.0855,-0.15218 -0.0438,-0.33729 0.10083,-0.44765 0.0555,-0.0423 0.0778,-0.0478 0.195301,-0.0478 0.11899,0 0.13937,0.006 0.19803,0.05 0.0992,0.076 0.141372,0.15615 0.142665,0.2717 0.0023,0.18622 -0.128905,0.33128 -0.310515,0.34393 -0.0496,0.003 -0.10537,0.002 -0.12398,-0.003 z m 0.11263,-0.32967 c 0,-0.0145 -0.008,-0.0262 -0.0175,-0.0262 -0.009,0 -0.0175,0.0118 -0.0175,0.0262 0,0.0145 0.008,0.0262 0.0175,0.0262 0.009,0 0.0175,-0.0118 0.0175,-0.0262 z"
       id="use472" />
    <path
       style="display:inline;fill:#005500;fill-opacity:1;stroke-width:0.0175056"
       d="m -100.15344,165.16893 c -0.07,-0.0198 -0.16269,-0.0964 -0.20231,-0.16688 -0.0855,-0.15219 -0.0438,-0.33729 0.10083,-0.44765 0.0555,-0.0423 0.0778,-0.0477 0.19529,-0.0477 0.119001,0 0.139371,0.006 0.198041,0.05 0.0992,0.076 0.14137,0.15615 0.14267,0.2717 0.002,0.18622 -0.12892,0.33129 -0.310531,0.34393 -0.0496,0.003 -0.10537,0.002 -0.12397,-0.003 z m 0.11263,-0.32967 c 0,-0.0145 -0.008,-0.0263 -0.0175,-0.0263 -0.009,0 -0.0175,0.0118 -0.0175,0.0263 0,0.0145 0.008,0.0262 0.0175,0.0262 0.009,0 0.0175,-0.0118 0.0175,-0.0262 z"
       id="use474" />
    <path
       style="display:inline;fill:#005500;fill-opacity:1;stroke-width:0.0175056"
       d="m -100.47927,165.06979 c -0.07,-0.0199 -0.16267,-0.0964 -0.20229,-0.16689 -0.0855,-0.15219 -0.0438,-0.33729 0.10083,-0.44764 0.0556,-0.0423 0.0778,-0.0478 0.1953,-0.0478 0.119,0 0.13938,0.006 0.19803,0.05 0.0992,0.0759 0.14137,0.15614 0.14266,0.2717 0.002,0.1862 -0.1289,0.33128 -0.3105,0.34393 -0.0496,0.003 -0.10537,0.002 -0.12398,-0.003 z m 0.11275,-0.32967 c 0,-0.0145 -0.008,-0.0263 -0.0175,-0.0263 -0.009,0 -0.0175,0.0118 -0.0175,0.0263 0,0.0145 0.008,0.0262 0.0175,0.0262 0.009,0 0.0175,-0.0118 0.0175,-0.0262 z"
       id="use476" />
    <path
       style="display:inline;fill:#005500;fill-opacity:1;stroke-width:0.0175056"
       d="m -99.905659,164.71134 c -0.07,-0.0199 -0.162681,-0.0964 -0.202301,-0.16687 -0.0855,-0.1522 -0.0438,-0.33731 0.10083,-0.44765 0.0555,-0.0423 0.0778,-0.0478 0.195301,-0.0478 0.119,0 0.13939,0.006 0.19804,0.05 0.09924,0.076 0.141363,0.15613 0.142656,0.2717 0.0023,0.1862 -0.128906,0.33128 -0.310496,0.34392 -0.0496,0.003 -0.10537,0.002 -0.12399,-0.003 z m 0.11274,-0.32967 c 0,-0.0145 -0.008,-0.0263 -0.0175,-0.0263 -0.009,0 -0.0175,0.0118 -0.0175,0.0263 0,0.0145 0.008,0.0262 0.0175,0.0262 0.009,0 0.0175,-0.0118 0.0175,-0.0262 z"
       id="use478" />
    <path
       style="display:inline;fill:#005500;fill-opacity:1;stroke-width:0.0175056"
       d="m -100.20039,165.60548 c -0.0699,-0.0198 -0.16268,-0.0964 -0.20229,-0.16689 -0.0855,-0.15219 -0.0438,-0.33729 0.10083,-0.44764 0.0556,-0.0423 0.0778,-0.0478 0.1953,-0.0478 0.119001,0 0.139381,0.006 0.198041,0.05 0.0992,0.0759 0.14136,0.15613 0.14265,0.2717 0.002,0.18621 -0.1289,0.33128 -0.310501,0.34392 -0.0496,0.003 -0.10537,0.002 -0.12398,-0.003 z m 0.11275,-0.32969 c 0,-0.0145 -0.008,-0.0262 -0.0175,-0.0262 -0.009,0 -0.0175,0.0118 -0.0175,0.0262 0,0.0145 0.008,0.0263 0.0175,0.0263 0.009,0 0.0175,-0.0118 0.0175,-0.0263 z"
       id="use480" />
    <path
       style="display:inline;fill:#005500;fill-opacity:1;stroke-width:0.0175056"
       d="m -100.14456,164.78234 c -0.07,-0.0198 -0.16268,-0.0964 -0.20231,-0.16688 -0.0855,-0.15219 -0.0438,-0.33729 0.10083,-0.44764 0.0555,-0.0423 0.0778,-0.0478 0.19529,-0.0478 0.119001,0 0.139381,0.006 0.198051,0.05 0.0992,0.0759 0.14136,0.15613 0.14266,0.2717 0.002,0.1862 -0.12892,0.33128 -0.310521,0.34392 -0.0496,0.003 -0.10536,0.002 -0.12398,-0.003 z m 0.11263,-0.32966 c 0,-0.0145 -0.008,-0.0263 -0.0175,-0.0263 -0.009,0 -0.0175,0.0118 -0.0175,0.0263 0,0.0145 0.008,0.0263 0.0175,0.0263 0.009,0 0.0175,-0.0118 0.0175,-0.0263 z"
       id="use482" />
    <path
       style="display:inline;fill:#005500;fill-opacity:1;stroke-width:0.0175056"
       d="m -99.540749,165.01654 c -0.07,-0.0198 -0.16268,-0.0964 -0.20231,-0.16688 -0.0855,-0.15219 -0.0438,-0.33729 0.10083,-0.44764 0.0555,-0.0423 0.0778,-0.0477 0.195289,-0.0477 0.11899,0 0.139372,0.006 0.198045,0.05 0.09924,0.0759 0.141356,0.15614 0.142661,0.2717 0.0023,0.1862 -0.128915,0.33128 -0.310524,0.34392 -0.04956,0.003 -0.105369,0.002 -0.123971,-0.003 z m 0.112739,-0.32966 c 0,-0.0145 -0.0079,-0.0262 -0.01747,-0.0262 -0.0091,0 -0.01747,0.0118 -0.01747,0.0262 0,0.0145 0.0079,0.0262 0.01747,0.0262 0.0091,0 0.01747,-0.0118 0.01747,-0.0262 z"
       id="use484" />
    <path
       style="display:inline;fill:#005500;fill-opacity:1;stroke-width:0.0175056"
       d="m -99.747109,164.39356 c -0.07,-0.0199 -0.16268,-0.0964 -0.2023,-0.16688 -0.0855,-0.15218 -0.0438,-0.33729 0.10083,-0.44765 0.0555,-0.0423 0.0778,-0.0478 0.19529,-0.0478 0.119004,0 0.139385,0.006 0.198047,0.05 0.09924,0.076 0.141368,0.15615 0.142661,0.2717 0.0023,0.18622 -0.128915,0.33129 -0.310518,0.34393 -0.0496,0.003 -0.10536,0.002 -0.12398,-0.003 z m 0.11263,-0.32967 c 0,-0.0145 -0.008,-0.0263 -0.0175,-0.0263 -0.009,0 -0.0175,0.0118 -0.0175,0.0263 0,0.0145 0.008,0.0262 0.0175,0.0262 0.009,0 0.0175,-0.0118 0.0175,-0.0262 z"
       id="use486" />
    <path
       style="display:inline;fill:#005500;fill-opacity:1;stroke-width:0.0175056"
       d="m -99.705099,164.34979 c -0.07,-0.0199 -0.16269,-0.0964 -0.20231,-0.16688 -0.0855,-0.15219 -0.0438,-0.33729 0.10083,-0.44765 0.0555,-0.0423 0.0778,-0.0478 0.19529,-0.0478 0.119003,0 0.139385,0.006 0.198047,0.05 0.09924,0.076 0.141368,0.15614 0.142661,0.2717 0.0023,0.18621 -0.128915,0.33129 -0.310518,0.34393 -0.0496,0.003 -0.10536,0.002 -0.12398,-0.003 z m 0.11263,-0.32967 c 0,-0.0145 -0.008,-0.0262 -0.0175,-0.0262 -0.009,0 -0.0175,0.0118 -0.0175,0.0262 0,0.0145 0.008,0.0263 0.0175,0.0263 0.009,0 0.0175,-0.0118 0.0175,-0.0263 z"
       id="use488" />
    <path
       style="display:inline;fill:#005500;fill-opacity:1;stroke-width:0.0175056"
       d="m -100.60207,164.89051 c -0.07,-0.0198 -0.16268,-0.0964 -0.20231,-0.16687 -0.0855,-0.15219 -0.0438,-0.33729 0.10084,-0.44765 0.0555,-0.0423 0.0778,-0.0478 0.19528,-0.0478 0.11899,0 0.13938,0.006 0.19805,0.05 0.0992,0.0759 0.14136,0.15614 0.14266,0.2717 0.002,0.18621 -0.12891,0.33129 -0.31052,0.34392 -0.0496,0.003 -0.10537,0.002 -0.12397,-0.003 z m 0.11274,-0.32967 c 0,-0.0145 -0.008,-0.0263 -0.0175,-0.0263 -0.009,0 -0.0175,0.0118 -0.0175,0.0263 0,0.0145 0.008,0.0262 0.0175,0.0262 0.009,0 0.0175,-0.0118 0.0175,-0.0262 z"
       id="use490" />
    <path
       style="display:inline;fill:#005500;fill-opacity:1;stroke-width:0.0175056"
       d="m -100.22634,164.59395 c -0.0699,-0.0199 -0.16268,-0.0964 -0.20229,-0.16689 -0.0855,-0.15218 -0.0438,-0.33729 0.10083,-0.44763 0.0555,-0.0423 0.0778,-0.0478 0.1953,-0.0478 0.119,0 0.139381,0.006 0.198041,0.05 0.0992,0.0759 0.14136,0.15615 0.14265,0.2717 0.002,0.18622 -0.1289,0.3313 -0.310501,0.34393 -0.0496,0.003 -0.10537,0.002 -0.12398,-0.003 z m 0.11274,-0.32968 c 0,-0.0145 -0.008,-0.0262 -0.0175,-0.0262 -0.009,0 -0.0175,0.0118 -0.0175,0.0262 0,0.0145 0.008,0.0262 0.0175,0.0262 0.009,0 0.0175,-0.0118 0.0175,-0.0262 z"
       id="use492" />
    <path
       style="display:inline;fill:#005500;fill-opacity:1;stroke-width:0.0175056"
       d="m -99.805609,164.76657 c -0.07,-0.0198 -0.16268,-0.0964 -0.202311,-0.16689 -0.0855,-0.15219 -0.0438,-0.33729 0.100831,-0.44764 0.0555,-0.0423 0.0778,-0.0478 0.19529,-0.0478 0.11899,0 0.13937,0.006 0.198043,0.05 0.09924,0.0759 0.141356,0.15615 0.142661,0.2717 0.0023,0.18621 -0.128915,0.33129 -0.310524,0.34393 -0.0496,0.003 -0.10537,0.002 -0.12397,-0.003 z m 0.11274,-0.32968 c 0,-0.0145 -0.008,-0.0262 -0.0175,-0.0262 -0.009,0 -0.0175,0.0118 -0.0175,0.0262 0,0.0145 0.008,0.0263 0.0175,0.0263 0.009,0 0.0175,-0.0118 0.0175,-0.0263 z"
       id="use494" />
    <path
       style="display:inline;fill:#005500;fill-opacity:1;stroke-width:0.0175056"
       d="m -100.25029,165.04006 c -0.0699,-0.0199 -0.16268,-0.0964 -0.2023,-0.16686 -0.0855,-0.1522 -0.0438,-0.33731 0.10083,-0.44765 0.0555,-0.0423 0.0778,-0.0478 0.19529,-0.0478 0.119,0 0.13938,0.006 0.198051,0.05 0.0992,0.076 0.14135,0.15614 0.14266,0.2717 0.002,0.18621 -0.12892,0.33128 -0.310521,0.34393 -0.0496,0.003 -0.10536,0.002 -0.12398,-0.003 z m 0.11274,-0.32966 c 0,-0.0145 -0.008,-0.0263 -0.0175,-0.0263 -0.009,0 -0.0175,0.0118 -0.0175,0.0263 0,0.0145 0.008,0.0262 0.0175,0.0262 0.009,0 0.0175,-0.0118 0.0175,-0.0262 z"
       id="use496" />
    <path
       style="display:inline;fill:#005500;fill-opacity:1;stroke-width:0.0175056"
       d="m -100.44806,165.71687 c -0.07,-0.0198 -0.16268,-0.0964 -0.2023,-0.16689 -0.0855,-0.15218 -0.0438,-0.33729 0.10083,-0.44764 0.0555,-0.0423 0.0778,-0.0478 0.1953,-0.0478 0.119,0 0.13938,0.006 0.19803,0.05 0.0993,0.076 0.14137,0.15614 0.14266,0.2717 0.002,0.18621 -0.1289,0.33128 -0.3105,0.34392 -0.0496,0.003 -0.10537,0.002 -0.12398,-0.003 z m 0.11274,-0.32967 c 0,-0.0145 -0.008,-0.0263 -0.0175,-0.0263 -0.009,0 -0.0175,0.0118 -0.0175,0.0263 0,0.0145 0.008,0.0262 0.0175,0.0262 0.009,0 0.0175,-0.0118 0.0175,-0.0262 z"
       id="use498" />
    <path
       style="display:inline;fill:#005500;fill-opacity:1;stroke-width:0.0175056"
       d="m -100.77592,166.349 c -0.07,-0.0198 -0.16269,-0.0964 -0.20231,-0.16688 -0.0855,-0.15219 -0.0438,-0.33729 0.10083,-0.44765 0.0556,-0.0423 0.0778,-0.0477 0.19529,-0.0477 0.119,0 0.13939,0.006 0.19805,0.05 0.0992,0.0759 0.14137,0.15614 0.14266,0.2717 0.002,0.18621 -0.12892,0.33129 -0.31051,0.34392 -0.0496,0.003 -0.10537,0.002 -0.12399,-0.003 z m 0.11263,-0.32967 c 0,-0.0145 -0.008,-0.0262 -0.0175,-0.0262 -0.009,0 -0.0175,0.0118 -0.0175,0.0262 0,0.0145 0.008,0.0263 0.0175,0.0263 0.009,0 0.0175,-0.0118 0.0175,-0.0263 z"
       id="use500" />
    <path
       style="display:inline;fill:#005500;fill-opacity:1;stroke-width:0.0175056"
       d="m -101.55014,166.72968 c -0.07,-0.0198 -0.16268,-0.0964 -0.2023,-0.16687 -0.0855,-0.15219 -0.0438,-0.3373 0.10083,-0.44765 0.0555,-0.0423 0.0778,-0.0478 0.1953,-0.0478 0.11899,0 0.13937,0.006 0.19804,0.05 0.0992,0.076 0.14136,0.15615 0.14266,0.2717 0.002,0.18622 -0.12891,0.3313 -0.31052,0.34394 -0.0496,0.003 -0.10536,0.002 -0.12397,-0.003 z m 0.11263,-0.32967 c 0,-0.0145 -0.008,-0.0263 -0.0175,-0.0263 -0.009,0 -0.0175,0.0118 -0.0175,0.0263 0,0.0145 0.008,0.0262 0.0175,0.0262 0.009,0 0.0175,-0.0118 0.0175,-0.0262 z"
       id="use502" />
    <path
       style="display:inline;fill:#005500;fill-opacity:1;stroke-width:0.0175056"
       d="m -100.83984,167.94854 c -0.07,-0.0199 -0.16269,-0.0964 -0.20231,-0.16689 -0.0855,-0.15219 -0.0438,-0.33729 0.10083,-0.44765 0.0555,-0.0423 0.0778,-0.0478 0.19529,-0.0478 0.119,0 0.13938,0.006 0.19804,0.05 0.0993,0.076 0.14137,0.15615 0.14266,0.27171 0.002,0.1862 -0.12891,0.33128 -0.31051,0.34393 -0.0496,0.003 -0.10537,0.002 -0.12398,-0.003 z m 0.11263,-0.32968 c 0,-0.0145 -0.008,-0.0263 -0.0175,-0.0263 -0.009,0 -0.0175,0.0118 -0.0175,0.0263 0,0.0145 0.008,0.0262 0.0175,0.0262 0.009,0 0.0175,-0.0118 0.0175,-0.0262 z"
       id="use504" />
    <path
       style="display:inline;fill:#005500;fill-opacity:1;stroke-width:0.0175056"
       d="m -101.90407,167.98761 c -0.07,-0.0198 -0.16268,-0.0964 -0.20231,-0.16687 -0.0855,-0.15219 -0.0438,-0.3373 0.10083,-0.44765 0.0555,-0.0423 0.0778,-0.0477 0.19529,-0.0477 0.119,0 0.13938,0.006 0.19804,0.05 0.0992,0.076 0.14137,0.15615 0.14266,0.2717 0.002,0.18622 -0.12891,0.3313 -0.31051,0.34394 -0.0496,0.003 -0.10537,0.002 -0.12398,-0.003 z m 0.11263,-0.32967 c 0,-0.0145 -0.008,-0.0263 -0.0175,-0.0263 -0.009,0 -0.0175,0.0118 -0.0175,0.0263 0,0.0145 0.008,0.0262 0.0175,0.0262 0.009,0 0.0175,-0.0118 0.0175,-0.0262 z"
       id="use506" />
    <path
       style="display:inline;fill:#005500;fill-opacity:1;stroke-width:0.0175056"
       d="m -101.18725,168.69614 c -0.07,-0.0199 -0.16269,-0.0964 -0.20231,-0.16686 -0.0855,-0.1522 -0.0438,-0.33731 0.10083,-0.44766 0.0555,-0.0423 0.0778,-0.0477 0.19529,-0.0477 0.119,0 0.13938,0.006 0.19804,0.05 0.0992,0.076 0.14137,0.15615 0.14267,0.2717 0.002,0.18622 -0.12892,0.3313 -0.31052,0.34394 -0.0496,0.003 -0.10537,0.002 -0.12398,-0.003 z m 0.11263,-0.32966 c 0,-0.0145 -0.008,-0.0263 -0.0175,-0.0263 -0.009,0 -0.0175,0.0118 -0.0175,0.0263 0,0.0145 0.008,0.0262 0.0175,0.0262 0.009,0 0.0175,-0.0118 0.0175,-0.0262 z"
       id="use508" />
    <path
       style="display:inline;fill:#005500;fill-opacity:1;stroke-width:0.0175056"
       d="m -101.79301,168.92492 c -0.07,-0.0198 -0.16268,-0.0964 -0.20231,-0.16687 -0.0855,-0.15219 -0.0438,-0.33729 0.10083,-0.44765 0.0555,-0.0423 0.0778,-0.0477 0.19529,-0.0477 0.119,0 0.13938,0.006 0.19805,0.05 0.0992,0.076 0.14136,0.15614 0.14266,0.2717 0.002,0.18621 -0.12892,0.33129 -0.31052,0.34393 -0.0496,0.003 -0.10536,0.002 -0.12397,-0.003 z m 0.11263,-0.32967 c 0,-0.0145 -0.008,-0.0262 -0.0175,-0.0262 -0.009,0 -0.0175,0.0118 -0.0175,0.0262 0,0.0145 0.008,0.0262 0.0175,0.0262 0.009,0 0.0175,-0.0118 0.0175,-0.0262 z"
       id="use510" />
    <path
       style="display:inline;fill:#005500;fill-opacity:1;stroke-width:0.0175056"
       d="m -101.17219,170.38 c -0.0699,-0.0198 -0.16268,-0.0964 -0.2023,-0.16689 -0.0855,-0.15218 -0.0438,-0.33729 0.10084,-0.44765 0.0555,-0.0423 0.0778,-0.0477 0.19528,-0.0477 0.11901,0 0.13939,0.006 0.19805,0.05 0.0992,0.076 0.14137,0.15615 0.14266,0.27171 0.002,0.18621 -0.12892,0.33128 -0.31051,0.34393 -0.0496,0.003 -0.10537,0.002 -0.12397,-0.003 z m 0.11274,-0.32968 c 0,-0.0145 -0.008,-0.0263 -0.0175,-0.0263 -0.009,0 -0.0175,0.0118 -0.0175,0.0263 0,0.0145 0.008,0.0262 0.0175,0.0262 0.009,0 0.0175,-0.0118 0.0175,-0.0262 z"
       id="use512" />
    <path
       style="display:inline;fill:#005500;fill-opacity:1;stroke-width:0.0175056"
       d="m -101.10256,170.50297 c -0.07,-0.0198 -0.16268,-0.0964 -0.2023,-0.16688 -0.0855,-0.15219 -0.0438,-0.3373 0.10083,-0.44764 0.0555,-0.0423 0.0778,-0.0478 0.1953,-0.0478 0.11901,0 0.13939,0.006 0.19805,0.05 0.0992,0.0759 0.14136,0.15614 0.14265,0.2717 0.002,0.18621 -0.1289,0.3313 -0.3105,0.34393 -0.0496,0.003 -0.10537,0.002 -0.12398,-0.003 z m 0.11274,-0.32968 c 0,-0.0145 -0.008,-0.0262 -0.0175,-0.0262 -0.009,0 -0.0175,0.0118 -0.0175,0.0262 0,0.0145 0.008,0.0263 0.0175,0.0263 0.009,0 0.0175,-0.0118 0.0175,-0.0263 z"
       id="use514" />
    <path
       style="display:inline;fill:#005500;fill-opacity:1;stroke-width:0.0175056"
       d="m -101.20352,170.64589 c -0.07,-0.0198 -0.16267,-0.0964 -0.2023,-0.16687 -0.0855,-0.15219 -0.0438,-0.33729 0.10083,-0.44765 0.0555,-0.0423 0.0778,-0.0478 0.1953,-0.0478 0.11899,0 0.13937,0.006 0.19803,0.05 0.0992,0.0759 0.14137,0.15613 0.14266,0.2717 0.002,0.18621 -0.1289,0.33128 -0.31051,0.34392 -0.0496,0.003 -0.10537,0.002 -0.12397,-0.003 z m 0.11263,-0.32966 c 0,-0.0145 -0.008,-0.0262 -0.0175,-0.0262 -0.009,0 -0.0175,0.0118 -0.0175,0.0262 0,0.0145 0.008,0.0262 0.0175,0.0262 0.009,0 0.0175,-0.0118 0.0175,-0.0262 z"
       id="use516" />
    <path
       style="display:inline;fill:#005500;fill-opacity:1;stroke-width:0.0175056"
       d="m -101.77816,170.4895 c -0.07,-0.0198 -0.16268,-0.0964 -0.20231,-0.16688 -0.0855,-0.15219 -0.0438,-0.33729 0.10083,-0.44765 0.0555,-0.0423 0.0778,-0.0477 0.1953,-0.0477 0.11899,0 0.13937,0.006 0.19803,0.05 0.0992,0.0759 0.14137,0.15615 0.14266,0.2717 0.002,0.18622 -0.1289,0.33129 -0.31051,0.34393 -0.0496,0.003 -0.10537,0.002 -0.12397,-0.003 z m 0.11274,-0.32967 c 0,-0.0145 -0.008,-0.0263 -0.0175,-0.0263 -0.009,0 -0.0175,0.0118 -0.0175,0.0263 0,0.0145 0.008,0.0263 0.0175,0.0263 0.009,0 0.0175,-0.0118 0.0175,-0.0263 z"
       id="use518" />
    <path
       style="display:inline;fill:#005500;fill-opacity:1;stroke-width:0.0175056"
       d="m -101.40608,172.38728 c -0.07,-0.0198 -0.1627,-0.0964 -0.20231,-0.16689 -0.0855,-0.15218 -0.0438,-0.33729 0.10083,-0.44765 0.0555,-0.0423 0.0778,-0.0478 0.19529,-0.0478 0.119,0 0.13938,0.006 0.19804,0.05 0.0992,0.076 0.14136,0.15615 0.14266,0.27171 0.002,0.18621 -0.12891,0.33128 -0.31051,0.34392 -0.0496,0.003 -0.10537,0.002 -0.12398,-0.003 z m 0.11262,-0.32968 c 0,-0.0145 -0.008,-0.0263 -0.0175,-0.0263 -0.009,0 -0.0175,0.0118 -0.0175,0.0263 0,0.0145 0.008,0.0263 0.0175,0.0263 0.009,0 0.0175,-0.0118 0.0175,-0.0263 z"
       id="use520" />
    <path
       style="display:inline;fill:#005500;fill-opacity:1;stroke-width:0.0175056"
       d="m -102.52467,172.64663 c -0.07,-0.0198 -0.16268,-0.0964 -0.2023,-0.16688 -0.0855,-0.15218 -0.0438,-0.33729 0.10083,-0.44765 0.0555,-0.0423 0.0778,-0.0478 0.19528,-0.0478 0.11901,0 0.13939,0.006 0.19805,0.05 0.0992,0.076 0.14137,0.15615 0.14266,0.2717 0.002,0.18622 -0.12891,0.33129 -0.31051,0.34394 -0.0496,0.003 -0.10537,0.002 -0.12398,-0.003 z m 0.11263,-0.32967 c 0,-0.0145 -0.008,-0.0263 -0.0175,-0.0263 -0.009,0 -0.0175,0.0118 -0.0175,0.0263 0,0.0145 0.008,0.0262 0.0175,0.0262 0.009,0 0.0175,-0.0118 0.0175,-0.0262 z"
       id="use522" />
    <path
       style="display:inline;fill:#005500;fill-opacity:1;stroke-width:0.0175056"
       d="m -102.05836,173.45983 c -0.07,-0.0199 -0.16268,-0.0964 -0.2023,-0.16688 -0.0855,-0.15219 -0.0438,-0.33729 0.10084,-0.44764 0.0555,-0.0423 0.0778,-0.0478 0.19528,-0.0478 0.11901,0 0.13939,0.006 0.19805,0.05 0.0992,0.076 0.14135,0.15613 0.14266,0.2717 0.002,0.1862 -0.12892,0.33128 -0.31051,0.34391 -0.0496,0.003 -0.10537,0.002 -0.12398,-0.003 z m 0.11263,-0.32966 c 0,-0.0145 -0.008,-0.0262 -0.0175,-0.0262 -0.009,0 -0.0175,0.0118 -0.0175,0.0262 0,0.0145 0.008,0.0262 0.0175,0.0262 0.009,0 0.0175,-0.0118 0.0175,-0.0262 z"
       id="use524" />
    <path
       style="display:inline;fill:#005500;fill-opacity:1;stroke-width:0.0175056"
       d="m -102.72777,173.76613 c -0.0699,-0.0198 -0.16268,-0.0964 -0.2023,-0.16689 -0.0855,-0.15219 -0.0438,-0.33729 0.10083,-0.44764 0.0556,-0.0423 0.0778,-0.0478 0.1953,-0.0478 0.11901,0 0.13939,0.006 0.19805,0.05 0.0992,0.076 0.14136,0.15614 0.14265,0.2717 0.002,0.18622 -0.1289,0.33128 -0.3105,0.34393 -0.0496,0.003 -0.10537,0.002 -0.12398,-0.003 z m 0.11274,-0.32968 c 0,-0.0145 -0.008,-0.0262 -0.0175,-0.0262 -0.009,0 -0.0175,0.0118 -0.0175,0.0262 0,0.0145 0.008,0.0263 0.0175,0.0263 0.009,0 0.0175,-0.0118 0.0175,-0.0263 z"
       id="use526" />
    <path
       style="display:inline;fill:#005500;fill-opacity:1;stroke-width:0.0175056"
       d="m -102.71146,173.81127 c -0.07,-0.0199 -0.16268,-0.0964 -0.2023,-0.16687 -0.0855,-0.1522 -0.0438,-0.3373 0.10083,-0.44765 0.0555,-0.0423 0.0778,-0.0478 0.1953,-0.0478 0.11901,0 0.13938,0.006 0.19804,0.05 0.0992,0.076 0.14137,0.15615 0.14266,0.27171 0.002,0.18621 -0.1289,0.33129 -0.3105,0.34393 -0.0496,0.003 -0.10537,0.002 -0.12398,-0.003 z m 0.11274,-0.32967 c 0,-0.0145 -0.008,-0.0263 -0.0175,-0.0263 -0.009,0 -0.0175,0.0118 -0.0175,0.0263 0,0.0145 0.008,0.0262 0.0175,0.0262 0.009,0 0.0175,-0.0118 0.0175,-0.0262 z"
       id="use528" />
    <path
       style="display:inline;fill:#005500;fill-opacity:1;stroke-width:0.0175056"
       d="m -102.07049,173.07263 c -0.07,-0.0198 -0.16268,-0.0964 -0.2023,-0.16688 -0.0855,-0.15219 -0.0438,-0.33729 0.10083,-0.44765 0.0556,-0.0423 0.0778,-0.0478 0.1953,-0.0478 0.119,0 0.13937,0.006 0.19803,0.05 0.0992,0.0759 0.14137,0.15614 0.14266,0.2717 0.002,0.1862 -0.1289,0.33128 -0.31051,0.34392 -0.0496,0.003 -0.10537,0.002 -0.12397,-0.003 z m 0.11274,-0.32966 c 0,-0.0145 -0.008,-0.0263 -0.0175,-0.0263 -0.009,0 -0.0175,0.0118 -0.0175,0.0263 0,0.0145 0.008,0.0262 0.0175,0.0262 0.009,0 0.0175,-0.0118 0.0175,-0.0262 z"
       id="use530" />
    <path
       style="display:inline;fill:#005500;fill-opacity:1;stroke-width:0.0175056"
       d="m -102.65557,174.07038 c -0.07,-0.0198 -0.16267,-0.0964 -0.2023,-0.16687 -0.0855,-0.15219 -0.0438,-0.3373 0.10083,-0.44764 0.0555,-0.0423 0.0778,-0.0478 0.1953,-0.0478 0.11899,0 0.13937,0.006 0.19803,0.05 0.0992,0.076 0.14137,0.15613 0.14266,0.2717 0.002,0.18621 -0.12891,0.33129 -0.31051,0.34392 -0.0496,0.003 -0.10537,0.002 -0.12397,-0.003 z m 0.11263,-0.32967 c 0,-0.0145 -0.008,-0.0262 -0.0175,-0.0262 -0.009,0 -0.0175,0.0118 -0.0175,0.0262 0,0.0145 0.008,0.0263 0.0175,0.0263 0.009,0 0.0175,-0.0118 0.0175,-0.0263 z"
       id="use532" />
    <path
       style="display:inline;fill:#005500;fill-opacity:1;stroke-width:0.0175056"
       d="m -102.67343,174.16246 c -0.07,-0.0199 -0.16268,-0.0964 -0.20231,-0.16689 -0.0855,-0.15219 -0.0438,-0.33729 0.10083,-0.44764 0.0556,-0.0423 0.0778,-0.0478 0.1953,-0.0478 0.11899,0 0.13937,0.006 0.19804,0.05 0.0992,0.0759 0.14136,0.15615 0.14266,0.2717 0.002,0.18621 -0.12892,0.33129 -0.31052,0.34393 -0.0496,0.003 -0.10536,0.002 -0.12396,-0.003 z m 0.11274,-0.32967 c 0,-0.0145 -0.008,-0.0262 -0.0175,-0.0262 -0.009,0 -0.0175,0.0118 -0.0175,0.0262 0,0.0145 0.008,0.0263 0.0175,0.0263 0.009,0 0.0175,-0.0118 0.0175,-0.0263 z"
       id="use534" />
    <path
       style="display:inline;fill:#005500;fill-opacity:1;stroke-width:0.0175056"
       d="m -102.28459,173.55005 c -0.07,-0.0198 -0.16268,-0.0964 -0.20231,-0.16686 -0.0855,-0.1522 -0.0438,-0.33731 0.10083,-0.44765 0.0555,-0.0423 0.0778,-0.0478 0.19529,-0.0478 0.119,0 0.13939,0.006 0.19805,0.05 0.0992,0.0759 0.14137,0.15614 0.14266,0.2717 0.002,0.18621 -0.12892,0.33129 -0.31051,0.34393 -0.0496,0.003 -0.10537,0.002 -0.12398,-0.003 z m 0.11263,-0.32966 c 0,-0.0145 -0.008,-0.0262 -0.0175,-0.0262 -0.009,0 -0.0175,0.0118 -0.0175,0.0262 0,0.0145 0.008,0.0263 0.0175,0.0263 0.009,0 0.0175,-0.0118 0.0175,-0.0263 z"
       id="use536" />
    <path
       style="display:inline;fill:#005500;fill-opacity:1;stroke-width:0.0175056"
       d="m -102.97616,173.59594 c -0.07,-0.0199 -0.16268,-0.0964 -0.2023,-0.16687 -0.0855,-0.15219 -0.0438,-0.3373 0.10083,-0.44765 0.0555,-0.0423 0.0778,-0.0478 0.1953,-0.0478 0.119,0 0.13937,0.006 0.19804,0.05 0.0992,0.0759 0.14136,0.15615 0.14266,0.2717 0.002,0.18622 -0.12891,0.3313 -0.31052,0.34393 -0.0496,0.003 -0.10536,0.002 -0.12397,-0.003 z m 0.11274,-0.32967 c 0,-0.0145 -0.008,-0.0263 -0.0175,-0.0263 -0.009,0 -0.0175,0.0118 -0.0175,0.0263 0,0.0145 0.008,0.0262 0.0175,0.0262 0.009,0 0.0175,-0.0118 0.0175,-0.0262 z"
       id="use538" />
    <path
       style="display:inline;fill:#005500;fill-opacity:1;stroke-width:0.0175056"
       d="m -102.42166,173.86687 c -0.07,-0.0199 -0.16269,-0.0964 -0.20231,-0.16688 -0.0855,-0.1522 -0.0438,-0.3373 0.10084,-0.44765 0.0555,-0.0423 0.0778,-0.0478 0.19529,-0.0478 0.11899,0 0.13938,0.006 0.19804,0.05 0.0992,0.076 0.14137,0.15614 0.14266,0.2717 0.002,0.18621 -0.12892,0.33128 -0.31051,0.34393 -0.0496,0.003 -0.10537,0.002 -0.12397,-0.003 z m 0.11263,-0.32967 c 0,-0.0145 -0.008,-0.0262 -0.0175,-0.0262 -0.009,0 -0.0175,0.0118 -0.0175,0.0262 0,0.0145 0.008,0.0263 0.0175,0.0263 0.009,0 0.0175,-0.0118 0.0175,-0.0263 z"
       id="use540" />
    <path
       style="display:inline;fill:#005500;fill-opacity:1;stroke-width:0.0175056"
       d="m -102.41811,173.75264 c -0.07,-0.0198 -0.16268,-0.0964 -0.20231,-0.16687 -0.0855,-0.15219 -0.0438,-0.33729 0.10084,-0.44765 0.0555,-0.0423 0.0778,-0.0477 0.1953,-0.0477 0.11899,0 0.13937,0.006 0.19803,0.05 0.0992,0.0759 0.14137,0.15614 0.14266,0.2717 0.002,0.18621 -0.12892,0.33129 -0.31051,0.34392 -0.0496,0.003 -0.10537,0.002 -0.12397,-0.003 z m 0.11263,-0.32967 c 0,-0.0145 -0.008,-0.0262 -0.0175,-0.0262 -0.009,0 -0.0175,0.0118 -0.0175,0.0262 0,0.0145 0.008,0.0263 0.0175,0.0263 0.009,0 0.0175,-0.0118 0.0175,-0.0263 z"
       id="use542" />
    <path
       style="display:inline;fill:#005500;fill-opacity:1;stroke-width:0.0175056"
       d="m -103.07447,173.62962 c -0.0699,-0.0198 -0.16268,-0.0964 -0.2023,-0.16688 -0.0855,-0.15219 -0.0438,-0.33729 0.10083,-0.44764 0.0555,-0.0423 0.0778,-0.0477 0.1953,-0.0477 0.119,0 0.13938,0.006 0.19803,0.05 0.0992,0.076 0.14137,0.15614 0.14266,0.2717 0.002,0.1862 -0.1289,0.33128 -0.3105,0.34392 -0.0496,0.003 -0.10537,0.002 -0.12398,-0.003 z m 0.11274,-0.32966 c 0,-0.0145 -0.008,-0.0263 -0.0175,-0.0263 -0.009,0 -0.0175,0.0118 -0.0175,0.0263 0,0.0145 0.008,0.0262 0.0175,0.0262 0.009,0 0.0175,-0.0118 0.0175,-0.0262 z"
       id="use544" />
    <path
       style="display:inline;fill:#005500;fill-opacity:1;stroke-width:0.0175056"
       d="m -102.96203,174.02709 c -0.07,-0.0198 -0.16268,-0.0964 -0.20231,-0.16688 -0.0855,-0.1522 -0.0438,-0.33729 0.10083,-0.44765 0.0555,-0.0423 0.0778,-0.0478 0.19529,-0.0478 0.119,0 0.13938,0.006 0.19805,0.05 0.0992,0.076 0.14136,0.15614 0.14266,0.2717 0.002,0.18622 -0.12892,0.33129 -0.31052,0.34393 -0.0496,0.003 -0.10536,0.002 -0.12398,-0.003 z m 0.11263,-0.32967 c 0,-0.0145 -0.008,-0.0263 -0.0175,-0.0263 -0.009,0 -0.0175,0.0118 -0.0175,0.0263 0,0.0145 0.008,0.0262 0.0175,0.0262 0.009,0 0.0175,-0.0118 0.0175,-0.0262 z"
       id="use546" />
    <path
       style="display:inline;fill:#005500;fill-opacity:1;stroke-width:0.0175056"
       d="m -103.22408,173.8472 c -0.07,-0.0198 -0.16268,-0.0964 -0.20229,-0.16687 -0.0855,-0.1522 -0.0438,-0.33729 0.10083,-0.44765 0.0555,-0.0423 0.0778,-0.0477 0.1953,-0.0477 0.119,0 0.13937,0.006 0.19803,0.05 0.0992,0.0759 0.14137,0.15613 0.14266,0.2717 0.002,0.18621 -0.12891,0.33129 -0.31051,0.34392 -0.0496,0.003 -0.10537,0.002 -0.12397,-0.003 z m 0.11263,-0.32967 c 0,-0.0145 -0.008,-0.0262 -0.0175,-0.0262 -0.009,0 -0.0175,0.0118 -0.0175,0.0262 0,0.0145 0.008,0.0263 0.0175,0.0263 0.009,0 0.0175,-0.0118 0.0175,-0.0263 z"
       id="use548" />
    <path
       style="display:inline;fill:#005500;fill-opacity:1;stroke-width:0.0175056"
       d="m -102.64181,173.8204 c -0.07,-0.0199 -0.16268,-0.0964 -0.20231,-0.16689 -0.0855,-0.15218 -0.0438,-0.33729 0.10084,-0.44763 0.0555,-0.0423 0.0778,-0.0478 0.19529,-0.0478 0.11899,0 0.13938,0.006 0.19805,0.05 0.0992,0.0759 0.14136,0.15614 0.14265,0.2717 0.002,0.18621 -0.1289,0.33128 -0.31051,0.34393 -0.0496,0.003 -0.10537,0.002 -0.12397,-0.003 z m 0.11263,-0.32967 c 0,-0.0145 -0.008,-0.0262 -0.0175,-0.0262 -0.009,0 -0.0175,0.0118 -0.0175,0.0262 0,0.0145 0.008,0.0262 0.0175,0.0262 0.009,0 0.0175,-0.0118 0.0175,-0.0262 z"
       id="use550" />
    <path
       style="display:inline;fill:#005500;fill-opacity:1;stroke-width:0.0175056"
       d="m -102.57312,173.43746 c -0.07,-0.0198 -0.16269,-0.0964 -0.20231,-0.16688 -0.0855,-0.15219 -0.0438,-0.33729 0.10083,-0.44765 0.0555,-0.0423 0.0778,-0.0478 0.19529,-0.0478 0.119,0 0.13938,0.006 0.19805,0.05 0.0992,0.076 0.14136,0.15615 0.14266,0.2717 0.002,0.18622 -0.12892,0.33129 -0.31052,0.34393 -0.0496,0.003 -0.10536,0.002 -0.12398,-0.003 z m 0.11263,-0.32967 c 0,-0.0145 -0.008,-0.0262 -0.0175,-0.0262 -0.009,0 -0.0175,0.0118 -0.0175,0.0262 0,0.0145 0.008,0.0262 0.0175,0.0262 0.009,0 0.0175,-0.0118 0.0175,-0.0262 z"
       id="use552" />
    <path
       style="display:inline;fill:#005500;fill-opacity:1;stroke-width:0.0175056"
       d="m -102.43355,173.86233 c -0.0699,-0.0198 -0.16268,-0.0964 -0.2023,-0.16688 -0.0855,-0.15219 -0.0438,-0.3373 0.10083,-0.44765 0.0555,-0.0423 0.0778,-0.0478 0.1953,-0.0478 0.119,0 0.13938,0.006 0.19803,0.05 0.0992,0.076 0.14137,0.15615 0.14266,0.27172 0.002,0.1862 -0.1289,0.33128 -0.3105,0.34392 -0.0496,0.003 -0.10537,0.002 -0.12398,-0.003 z m 0.11274,-0.32968 c 0,-0.0145 -0.008,-0.0262 -0.0175,-0.0262 -0.009,0 -0.0175,0.0118 -0.0175,0.0262 0,0.0145 0.008,0.0263 0.0175,0.0263 0.009,0 0.0175,-0.0118 0.0175,-0.0263 z"
       id="use554" />
    <path
       style="display:inline;fill:#005500;fill-opacity:1;stroke-width:0.0175056"
       d="m -102.99518,173.79738 c -0.07,-0.0198 -0.16268,-0.0964 -0.2023,-0.16688 -0.0855,-0.15219 -0.0438,-0.33729 0.10083,-0.44765 0.0555,-0.0423 0.0778,-0.0478 0.19529,-0.0478 0.119,0 0.13937,0.006 0.19804,0.05 0.0992,0.0759 0.14136,0.15615 0.14265,0.2717 0.002,0.18621 -0.1289,0.33128 -0.3105,0.34393 -0.0496,0.003 -0.10537,0.002 -0.12398,-0.003 z m 0.11274,-0.32967 c 0,-0.0145 -0.008,-0.0262 -0.0175,-0.0262 -0.009,0 -0.0175,0.0118 -0.0175,0.0262 0,0.0145 0.008,0.0263 0.0175,0.0263 0.009,0 0.0175,-0.0118 0.0175,-0.0263 z"
       id="use556" />
    <path
       style="display:inline;fill:#005500;fill-opacity:1;stroke-width:0.0175056"
       d="m -102.61288,173.43366 c -0.0699,-0.0198 -0.16268,-0.0964 -0.2023,-0.16688 -0.0855,-0.15219 -0.0438,-0.33729 0.10083,-0.44765 0.0555,-0.0423 0.0778,-0.0478 0.1953,-0.0478 0.119,0 0.13938,0.006 0.19803,0.05 0.0992,0.076 0.14137,0.15615 0.14266,0.2717 0.002,0.18622 -0.1289,0.33129 -0.3105,0.34394 -0.0496,0.003 -0.10537,0.002 -0.12398,-0.003 z m 0.11274,-0.32967 c 0,-0.0145 -0.008,-0.0262 -0.0175,-0.0262 -0.009,0 -0.0175,0.0118 -0.0175,0.0262 0,0.0145 0.008,0.0263 0.0175,0.0263 0.009,0 0.0175,-0.0118 0.0175,-0.0263 z"
       id="use558" />
    <path
       style="display:inline;fill:#005500;fill-opacity:1;stroke-width:0.0175056"
       d="m -102.72209,174.63617 c -0.0699,-0.0198 -0.16268,-0.0964 -0.20229,-0.16688 -0.0855,-0.15219 -0.0438,-0.3373 0.10083,-0.44766 0.0556,-0.0423 0.0778,-0.0477 0.19529,-0.0477 0.119,0 0.13938,0.006 0.19804,0.05 0.0992,0.076 0.14136,0.15615 0.14266,0.27171 0.002,0.18621 -0.12891,0.33128 -0.31051,0.34393 -0.0496,0.003 -0.10537,0.002 -0.12398,-0.003 z m 0.11274,-0.32967 c 0,-0.0145 -0.008,-0.0262 -0.0175,-0.0262 -0.009,0 -0.0175,0.0118 -0.0175,0.0262 0,0.0145 0.008,0.0263 0.0175,0.0263 0.009,0 0.0175,-0.0118 0.0175,-0.0263 z"
       id="use560" />
    <path
       style="display:inline;fill:#005500;fill-opacity:1;stroke-width:0.0175056"
       d="m -102.81002,174.13536 c -0.0699,-0.0198 -0.16268,-0.0964 -0.2023,-0.16688 -0.0855,-0.15218 -0.0438,-0.33729 0.10083,-0.44765 0.0556,-0.0423 0.0778,-0.0477 0.1953,-0.0477 0.119,0 0.13938,0.006 0.19805,0.05 0.0992,0.0759 0.14135,0.15615 0.14265,0.2717 0.002,0.18622 -0.12891,0.33129 -0.31051,0.34393 -0.0496,0.003 -0.10536,0.002 -0.12398,-0.003 z m 0.11274,-0.32967 c 0,-0.0145 -0.008,-0.0262 -0.0175,-0.0262 -0.009,0 -0.0175,0.0118 -0.0175,0.0262 0,0.0145 0.008,0.0263 0.0175,0.0263 0.009,0 0.0175,-0.0118 0.0175,-0.0263 z"
       id="use562" />
    <path
       style="display:inline;fill:#005500;fill-opacity:1;stroke-width:0.0175056"
       d="m -102.74005,173.71915 c -0.07,-0.0199 -0.16268,-0.0964 -0.2023,-0.16688 -0.0855,-0.15218 -0.0438,-0.33729 0.10083,-0.44763 0.0556,-0.0423 0.0778,-0.0477 0.1953,-0.0477 0.11899,0 0.13937,0.006 0.19803,0.05 0.0992,0.0759 0.14137,0.15614 0.14266,0.2717 0.002,0.18622 -0.1289,0.3313 -0.31051,0.34393 -0.0496,0.003 -0.10537,0.002 -0.12397,-0.003 z m 0.11274,-0.32967 c 0,-0.0145 -0.008,-0.0262 -0.0175,-0.0262 -0.009,0 -0.0175,0.0118 -0.0175,0.0262 0,0.0145 0.008,0.0262 0.0175,0.0262 0.009,0 0.0175,-0.0118 0.0175,-0.0262 z"
       id="use564" />
    <path
       style="display:inline;fill:#005500;fill-opacity:1;stroke-width:0.0175056"
       d="m -102.54791,173.97816 c -0.07,-0.0198 -0.16268,-0.0964 -0.20229,-0.16688 -0.0855,-0.1522 -0.0438,-0.33729 0.10083,-0.44765 0.0555,-0.0423 0.0778,-0.0478 0.19529,-0.0478 0.119,0 0.13938,0.006 0.19804,0.05 0.0992,0.0759 0.14136,0.15614 0.14266,0.2717 0.002,0.1862 -0.12891,0.33129 -0.31051,0.34393 -0.0496,0.003 -0.10537,0.002 -0.12398,-0.003 z m 0.11274,-0.32967 c 0,-0.0145 -0.008,-0.0263 -0.0175,-0.0263 -0.009,0 -0.0175,0.0118 -0.0175,0.0263 0,0.0145 0.008,0.0263 0.0175,0.0263 0.009,0 0.0175,-0.0118 0.0175,-0.0263 z"
       id="use566" />
    <path
       style="display:inline;fill:#005500;fill-opacity:1;stroke-width:0.0175056"
       d="m -102.9034,173.7581 c -0.0699,-0.0199 -0.16268,-0.0964 -0.2023,-0.16688 -0.0855,-0.15218 -0.0438,-0.33729 0.10083,-0.44765 0.0555,-0.0423 0.0778,-0.0478 0.19529,-0.0478 0.119,0 0.13938,0.006 0.19804,0.05 0.0992,0.076 0.14136,0.15615 0.14267,0.2717 0.002,0.18622 -0.12892,0.33129 -0.31052,0.34394 -0.0496,0.003 -0.10536,0.002 -0.12398,-0.003 z m 0.11274,-0.32967 c 0,-0.0145 -0.008,-0.0262 -0.0175,-0.0262 -0.009,0 -0.0175,0.0118 -0.0175,0.0262 0,0.0145 0.008,0.0262 0.0175,0.0262 0.009,0 0.0175,-0.0118 0.0175,-0.0262 z"
       id="use568" />
    <path
       style="display:inline;fill:#005500;fill-opacity:1;stroke-width:0.0175056"
       d="m -102.30182,174.40964 c -0.07,-0.0198 -0.16268,-0.0964 -0.20229,-0.16688 -0.0855,-0.15219 -0.0438,-0.33729 0.10083,-0.44765 0.0555,-0.0423 0.0778,-0.0478 0.1953,-0.0478 0.119,0 0.13938,0.006 0.19804,0.05 0.0992,0.076 0.14136,0.15614 0.14265,0.27171 0.002,0.18621 -0.1289,0.33128 -0.3105,0.34393 -0.0496,0.003 -0.10537,0.002 -0.12398,-0.003 z m 0.11263,-0.32967 c 0,-0.0145 -0.008,-0.0262 -0.0175,-0.0262 -0.009,0 -0.0175,0.0118 -0.0175,0.0262 0,0.0145 0.008,0.0262 0.0175,0.0262 0.009,0 0.0175,-0.0118 0.0175,-0.0262 z"
       id="use570" />
    <path
       style="display:inline;fill:#005500;fill-opacity:1;stroke-width:0.0175056"
       d="m -102.66024,173.8366 c -0.07,-0.0198 -0.16268,-0.0964 -0.2023,-0.16688 -0.0855,-0.15219 -0.0438,-0.33729 0.10084,-0.44764 0.0555,-0.0423 0.0778,-0.0478 0.1953,-0.0478 0.119,0 0.13937,0.006 0.19803,0.05 0.0992,0.076 0.14137,0.15614 0.14266,0.2717 0.002,0.18621 -0.1289,0.33129 -0.31051,0.34393 -0.0496,0.003 -0.10537,0.002 -0.12397,-0.003 z m 0.11274,-0.32967 c 0,-0.0145 -0.008,-0.0263 -0.0175,-0.0263 -0.009,0 -0.0175,0.0118 -0.0175,0.0263 0,0.0145 0.008,0.0262 0.0175,0.0262 0.009,0 0.0175,-0.0118 0.0175,-0.0262 z"
       id="use572" />
    <path
       style="display:inline;fill:#005500;fill-opacity:1;stroke-width:0.0175056"
       d="m -102.74572,174.27295 c -0.0699,-0.0199 -0.16268,-0.0964 -0.2023,-0.16687 -0.0855,-0.1522 -0.0438,-0.3373 0.10083,-0.44767 0.0555,-0.0423 0.0778,-0.0478 0.1953,-0.0478 0.119,0 0.13938,0.006 0.19804,0.05 0.0992,0.0759 0.14136,0.15614 0.14265,0.27169 0.002,0.18622 -0.1289,0.33129 -0.3105,0.34394 -0.0496,0.003 -0.10537,0.002 -0.12398,-0.003 z m 0.11274,-0.32967 c 0,-0.0145 -0.008,-0.0263 -0.0175,-0.0263 -0.009,0 -0.0175,0.0118 -0.0175,0.0263 0,0.0145 0.008,0.0262 0.0175,0.0262 0.009,0 0.0175,-0.0118 0.0175,-0.0262 z"
       id="use574" />
    <path
       style="display:inline;fill:#005500;fill-opacity:1;stroke-width:0.0175056"
       d="m -102.81442,174.47391 c -0.07,-0.0198 -0.16268,-0.0964 -0.2023,-0.16689 -0.0855,-0.15217 -0.0438,-0.33729 0.10083,-0.44764 0.0555,-0.0423 0.0778,-0.0477 0.19529,-0.0477 0.119,0 0.13937,0.006 0.19804,0.05 0.0993,0.076 0.14136,0.15615 0.14265,0.2717 0.002,0.18621 -0.1289,0.33129 -0.31051,0.34393 -0.0496,0.003 -0.10537,0.002 -0.12397,-0.003 z m 0.11274,-0.32967 c 0,-0.0145 -0.008,-0.0263 -0.0175,-0.0263 -0.009,0 -0.0175,0.0118 -0.0175,0.0263 0,0.0145 0.008,0.0262 0.0175,0.0262 0.009,0 0.0175,-0.0118 0.0175,-0.0262 z"
       id="use576" />
    <path
       style="display:inline;fill:#005500;fill-opacity:1;stroke-width:0.0175056"
       d="m -102.43343,174.41547 c -0.07,-0.0198 -0.16268,-0.0964 -0.20231,-0.16688 -0.0855,-0.15219 -0.0438,-0.33729 0.10083,-0.44765 0.0555,-0.0423 0.0778,-0.0478 0.19529,-0.0478 0.119,0 0.13938,0.006 0.19804,0.05 0.0992,0.076 0.14137,0.15614 0.14267,0.27171 0.002,0.1862 -0.12892,0.33128 -0.31052,0.34393 -0.0496,0.003 -0.10536,0.002 -0.12398,-0.003 z m 0.11263,-0.32967 c 0,-0.0145 -0.008,-0.0263 -0.0175,-0.0263 -0.009,0 -0.0175,0.0118 -0.0175,0.0263 0,0.0145 0.008,0.0262 0.0175,0.0262 0.009,0 0.0175,-0.0118 0.0175,-0.0262 z"
       id="use578" />
    <path
       style="display:inline;fill:#005500;fill-opacity:1;stroke-width:0.0175056"
       d="m -102.5699,174.21907 c -0.07,-0.0198 -0.16268,-0.0964 -0.2023,-0.16688 -0.0855,-0.15219 -0.0438,-0.33729 0.10084,-0.44765 0.0555,-0.0423 0.0778,-0.0477 0.1953,-0.0477 0.119,0 0.13937,0.006 0.19803,0.05 0.0992,0.0759 0.14137,0.15613 0.14266,0.2717 0.002,0.18621 -0.1289,0.33128 -0.3105,0.34392 -0.0496,0.003 -0.10537,0.002 -0.12398,-0.003 z m 0.11263,-0.32967 c 0,-0.0145 -0.008,-0.0262 -0.0175,-0.0262 -0.009,0 -0.0175,0.0118 -0.0175,0.0262 0,0.0145 0.008,0.0262 0.0175,0.0262 0.009,0 0.0175,-0.0118 0.0175,-0.0262 z"
       id="use580" />
    <path
       style="display:inline;fill:#005500;fill-opacity:1;stroke-width:0.0175056"
       d="m -103.34847,174.13639 c -0.07,-0.0199 -0.16268,-0.0964 -0.2023,-0.16687 -0.0855,-0.15219 -0.0438,-0.33729 0.10083,-0.44765 0.0555,-0.0423 0.0778,-0.0478 0.1953,-0.0478 0.11899,0 0.13937,0.006 0.19803,0.05 0.0992,0.0759 0.14137,0.15615 0.14266,0.2717 0.002,0.18622 -0.1289,0.3313 -0.31051,0.34393 -0.0496,0.003 -0.10537,0.002 -0.12398,-0.003 z m 0.11263,-0.32967 c 0,-0.0145 -0.008,-0.0263 -0.0175,-0.0263 -0.009,0 -0.0175,0.0118 -0.0175,0.0263 0,0.0145 0.008,0.0262 0.0175,0.0262 0.009,0 0.0175,-0.0118 0.0175,-0.0262 z"
       id="use582" />
    <path
       style="display:inline;fill:#005500;fill-opacity:1;stroke-width:0.0175056"
       d="m -102.8239,174.59163 c -0.07,-0.0199 -0.16268,-0.0964 -0.2023,-0.16688 -0.0855,-0.1522 -0.0438,-0.3373 0.10083,-0.44765 0.0555,-0.0423 0.0778,-0.0478 0.19529,-0.0478 0.119,0 0.13938,0.006 0.19804,0.05 0.0992,0.0759 0.14136,0.15614 0.14266,0.2717 0.002,0.18621 -0.12891,0.33128 -0.31051,0.34393 -0.0496,0.003 -0.10537,0.002 -0.12398,-0.003 z m 0.11262,-0.32967 c 0,-0.0145 -0.008,-0.0262 -0.0175,-0.0262 -0.009,0 -0.0175,0.0118 -0.0175,0.0262 0,0.0145 0.008,0.0263 0.0175,0.0263 0.009,0 0.0175,-0.0118 0.0175,-0.0263 z"
       id="use584" />
    <path
       style="display:inline;fill:#005500;fill-opacity:1;stroke-width:0.0175056"
       d="m -103.30267,174.86207 c -0.07,-0.0198 -0.16268,-0.0964 -0.20229,-0.16687 -0.0855,-0.15219 -0.0438,-0.3373 0.10083,-0.44765 0.0555,-0.0423 0.0778,-0.0477 0.19529,-0.0477 0.11899,0 0.13937,0.006 0.19804,0.05 0.0992,0.0759 0.14136,0.15614 0.14266,0.2717 0.002,0.18622 -0.12891,0.3313 -0.31052,0.34393 -0.0496,0.003 -0.10537,0.002 -0.12397,-0.003 z m 0.11274,-0.32967 c 0,-0.0145 -0.008,-0.0262 -0.0175,-0.0262 -0.009,0 -0.0175,0.0118 -0.0175,0.0262 0,0.0145 0.008,0.0262 0.0175,0.0262 0.009,0 0.0175,-0.0118 0.0175,-0.0262 z"
       id="use586" />
    <path
       style="display:inline;fill:#005500;fill-opacity:1;stroke-width:0.0175056"
       d="m -103.11039,174.72497 c -0.07,-0.0199 -0.16268,-0.0964 -0.2023,-0.16688 -0.0855,-0.15219 -0.0438,-0.33729 0.10083,-0.44765 0.0555,-0.0423 0.0778,-0.0478 0.1953,-0.0478 0.119,0 0.13937,0.006 0.19804,0.05 0.0992,0.076 0.14136,0.15615 0.14265,0.27171 0.002,0.18621 -0.1289,0.33128 -0.31051,0.34393 -0.0496,0.003 -0.10537,0.002 -0.12397,-0.003 z m 0.11262,-0.32967 c 0,-0.0145 -0.008,-0.0262 -0.0175,-0.0262 -0.009,0 -0.0175,0.0118 -0.0175,0.0262 0,0.0145 0.008,0.0263 0.0175,0.0263 0.009,0 0.0175,-0.0118 0.0175,-0.0263 z"
       id="use588" />
    <path
       style="display:inline;fill:#005500;fill-opacity:1;stroke-width:0.0175056"
       d="m -103.3407,175.06039 c -0.07,-0.0199 -0.16268,-0.0964 -0.20229,-0.16689 -0.0855,-0.15219 -0.0438,-0.33729 0.10083,-0.44765 0.0555,-0.0423 0.0778,-0.0478 0.1953,-0.0478 0.119,0 0.13938,0.006 0.19804,0.05 0.0992,0.076 0.14136,0.15615 0.14265,0.27171 0.002,0.1862 -0.1289,0.33128 -0.3105,0.34393 -0.0496,0.003 -0.10537,0.002 -0.12398,-0.003 z m 0.11274,-0.32968 c 0,-0.0145 -0.008,-0.0263 -0.0175,-0.0263 -0.009,0 -0.0175,0.0118 -0.0175,0.0263 0,0.0145 0.008,0.0262 0.0175,0.0262 0.009,0 0.0175,-0.0118 0.0175,-0.0262 z"
       id="use590" />
    <path
       style="display:inline;fill:#005500;fill-opacity:1;stroke-width:0.0175056"
       d="m -103.35837,175.21108 c -0.07,-0.0199 -0.16268,-0.0964 -0.20231,-0.16688 -0.0855,-0.15218 -0.0438,-0.33729 0.10084,-0.44765 0.0555,-0.0423 0.0778,-0.0478 0.19529,-0.0478 0.11899,0 0.13938,0.006 0.19804,0.05 0.0992,0.0759 0.14137,0.15615 0.14266,0.2717 0.002,0.18622 -0.12892,0.33129 -0.31051,0.34393 -0.0496,0.003 -0.10537,0.002 -0.12398,-0.003 z m 0.11263,-0.32967 c 0,-0.0145 -0.008,-0.0263 -0.0175,-0.0263 -0.009,0 -0.0175,0.0118 -0.0175,0.0263 0,0.0145 0.008,0.0263 0.0175,0.0263 0.009,0 0.0175,-0.0118 0.0175,-0.0263 z"
       id="use592" />
    <path
       style="display:inline;fill:#005500;fill-opacity:1;stroke-width:0.0175056"
       d="m -102.78193,174.75003 c -0.07,-0.0198 -0.16269,-0.0964 -0.20231,-0.16688 -0.0855,-0.15219 -0.0438,-0.33729 0.10083,-0.44764 0.0555,-0.0423 0.0778,-0.0478 0.19529,-0.0478 0.119,0 0.13939,0.006 0.19805,0.05 0.0992,0.076 0.14137,0.15613 0.14266,0.2717 0.002,0.1862 -0.12892,0.33128 -0.31051,0.34392 -0.0496,0.003 -0.10537,0.002 -0.12397,-0.003 z m 0.11274,-0.32966 c 0,-0.0145 -0.008,-0.0262 -0.0175,-0.0262 -0.009,0 -0.0175,0.0118 -0.0175,0.0262 0,0.0145 0.008,0.0262 0.0175,0.0262 0.009,0 0.0175,-0.0118 0.0175,-0.0262 z"
       id="use594" />
    <path
       style="display:inline;fill:#005500;fill-opacity:1;stroke-width:0.0175056"
       d="m -103.22171,174.65945 c -0.07,-0.0198 -0.16268,-0.0964 -0.20229,-0.16688 -0.0855,-0.15219 -0.0438,-0.33729 0.10083,-0.44765 0.0555,-0.0423 0.0778,-0.0477 0.1953,-0.0477 0.11899,0 0.13937,0.006 0.19803,0.05 0.0992,0.076 0.14137,0.15614 0.14266,0.2717 0.002,0.18621 -0.12891,0.33129 -0.31051,0.34392 -0.0496,0.003 -0.10537,0.002 -0.12397,-0.003 z m 0.11274,-0.32967 c 0,-0.0145 -0.008,-0.0263 -0.0175,-0.0263 -0.009,0 -0.0175,0.0118 -0.0175,0.0263 0,0.0145 0.008,0.0263 0.0175,0.0263 0.009,0 0.0175,-0.0118 0.0175,-0.0263 z"
       id="use596" />
    <path
       style="display:inline;fill:#005500;fill-opacity:1;stroke-width:0.0175056"
       d="m -103.15107,174.94443 c -0.07,-0.0199 -0.16268,-0.0964 -0.2023,-0.16688 -0.0855,-0.15219 -0.0438,-0.33729 0.10084,-0.44765 0.0555,-0.0423 0.0778,-0.0478 0.1953,-0.0478 0.119,0 0.13937,0.006 0.19803,0.05 0.0992,0.076 0.14137,0.15615 0.14266,0.2717 0.002,0.18621 -0.1289,0.33129 -0.31051,0.34393 -0.0496,0.003 -0.10537,0.002 -0.12397,-0.003 z m 0.11274,-0.32967 c 0,-0.0145 -0.008,-0.0262 -0.0175,-0.0262 -0.009,0 -0.0175,0.0118 -0.0175,0.0262 0,0.0145 0.008,0.0263 0.0175,0.0263 0.009,0 0.0175,-0.0118 0.0175,-0.0263 z"
       id="use598" />
    <path
       style="display:inline;fill:#005500;fill-opacity:1;stroke-width:0.0175056"
       d="m -103.18675,175.27643 c -0.07,-0.0198 -0.16268,-0.0964 -0.2023,-0.16687 -0.0855,-0.15219 -0.0438,-0.33729 0.10083,-0.44765 0.0555,-0.0423 0.0778,-0.0478 0.19529,-0.0478 0.11899,0 0.13937,0.006 0.19805,0.05 0.0992,0.076 0.14136,0.15614 0.14266,0.2717 0.002,0.18621 -0.12892,0.33129 -0.31053,0.34392 -0.0496,0.003 -0.10536,0.002 -0.12397,-0.003 z m 0.11274,-0.32967 c 0,-0.0145 -0.008,-0.0262 -0.0175,-0.0262 -0.009,0 -0.0175,0.0118 -0.0175,0.0262 0,0.0145 0.008,0.0263 0.0175,0.0263 0.009,0 0.0175,-0.0118 0.0175,-0.0263 z"
       id="use600" />
    <path
       style="display:inline;fill:#005500;fill-opacity:1;stroke-width:0.0175056"
       d="m -103.1705,174.66414 c -0.07,-0.0198 -0.16269,-0.0964 -0.20231,-0.16688 -0.0855,-0.15218 -0.0438,-0.33729 0.10084,-0.44763 0.0555,-0.0423 0.0778,-0.0478 0.1953,-0.0478 0.11899,0 0.13937,0.006 0.19803,0.05 0.0992,0.0759 0.14137,0.15614 0.14266,0.2717 0.002,0.18621 -0.12891,0.33128 -0.31051,0.34393 -0.0496,0.003 -0.10537,0.002 -0.12397,-0.003 z m 0.11274,-0.32966 c 0,-0.0145 -0.008,-0.0262 -0.0175,-0.0262 -0.009,0 -0.0175,0.0118 -0.0175,0.0262 0,0.0145 0.008,0.0262 0.0175,0.0262 0.009,0 0.0175,-0.0118 0.0175,-0.0262 z"
       id="use602" />
    <path
       style="display:inline;fill:#005500;fill-opacity:1;stroke-width:0.0175056"
       d="m -103.20363,174.94774 c -0.07,-0.0199 -0.16268,-0.0964 -0.20231,-0.16688 -0.0855,-0.15219 -0.0438,-0.33729 0.10084,-0.44765 0.0555,-0.0423 0.0778,-0.0478 0.19528,-0.0478 0.11901,0 0.13939,0.006 0.19805,0.05 0.0992,0.076 0.14137,0.15614 0.14266,0.2717 0.002,0.18622 -0.1289,0.33129 -0.31051,0.34393 -0.0496,0.003 -0.10537,0.002 -0.12398,-0.003 z m 0.11263,-0.32967 c 0,-0.0145 -0.008,-0.0263 -0.0175,-0.0263 -0.009,0 -0.0175,0.0118 -0.0175,0.0263 0,0.0145 0.008,0.0262 0.0175,0.0262 0.009,0 0.0175,-0.0118 0.0175,-0.0262 z"
       id="use604" />
    <path
       style="display:inline;fill:#005500;fill-opacity:1;stroke-width:0.0175056"
       d="m -103.54245,174.57678 c -0.0699,-0.0198 -0.16268,-0.0964 -0.2023,-0.16688 -0.0855,-0.15219 -0.0438,-0.3373 0.10083,-0.44764 0.0555,-0.0423 0.0778,-0.0477 0.19529,-0.0477 0.119,0 0.13939,0.006 0.19805,0.05 0.0992,0.076 0.14135,0.15613 0.14265,0.2717 0.002,0.1862 -0.12891,0.33128 -0.3105,0.34392 -0.0496,0.003 -0.10537,0.002 -0.12399,-0.003 z m 0.11274,-0.32967 c 0,-0.0145 -0.008,-0.0262 -0.0175,-0.0262 -0.009,0 -0.0175,0.0118 -0.0175,0.0262 0,0.0145 0.008,0.0262 0.0175,0.0262 0.009,0 0.0175,-0.0118 0.0175,-0.0262 z"
       id="use606" />
    <path
       style="display:inline;fill:#005500;fill-opacity:1;stroke-width:0.0175056"
       d="m -102.61229,174.34893 c -0.0699,-0.0198 -0.16268,-0.0964 -0.2023,-0.16687 -0.0855,-0.15219 -0.0438,-0.3373 0.10083,-0.44765 0.0555,-0.0423 0.0778,-0.0478 0.19529,-0.0478 0.119,0 0.13938,0.006 0.19804,0.05 0.0992,0.0759 0.14136,0.15614 0.14266,0.2717 0.002,0.18621 -0.12891,0.33128 -0.31051,0.34393 -0.0496,0.003 -0.10537,0.002 -0.12397,-0.003 z m 0.11274,-0.32966 c 0,-0.0145 -0.008,-0.0263 -0.0175,-0.0263 -0.009,0 -0.0175,0.0118 -0.0175,0.0263 0,0.0145 0.008,0.0262 0.0175,0.0262 0.009,0 0.0175,-0.0118 0.0175,-0.0262 z"
       id="use608" />
    <path
       style="display:inline;fill:#005500;fill-opacity:1;stroke-width:0.0175056"
       d="m -103.12834,174.21164 c -0.07,-0.0198 -0.16269,-0.0964 -0.20231,-0.16688 -0.0855,-0.15219 -0.0438,-0.3373 0.10083,-0.44765 0.0555,-0.0423 0.0778,-0.0477 0.19529,-0.0477 0.119,0 0.13939,0.006 0.19805,0.05 0.0992,0.0759 0.14136,0.15615 0.14266,0.2717 0.002,0.18621 -0.12892,0.33128 -0.31051,0.34393 -0.0496,0.003 -0.10537,0.002 -0.12397,-0.003 z m 0.11274,-0.32967 c 0,-0.0145 -0.008,-0.0263 -0.0175,-0.0263 -0.009,0 -0.0175,0.0118 -0.0175,0.0263 0,0.0145 0.008,0.0263 0.0175,0.0263 0.009,0 0.0175,-0.0118 0.0175,-0.0263 z"
       id="use610" />
  </g>
</svg>
