<?xml version="1.0" encoding="UTF-8" standalone="no"?>
<svg
   xmlns:osb="http://www.openswatchbook.org/uri/2009/osb"
   xmlns:dc="http://purl.org/dc/elements/1.1/"
   xmlns:cc="http://creativecommons.org/ns#"
   xmlns:rdf="http://www.w3.org/1999/02/22-rdf-syntax-ns#"
   xmlns:svg="http://www.w3.org/2000/svg"
   xmlns="http://www.w3.org/2000/svg"
   xmlns:xlink="http://www.w3.org/1999/xlink"
   xmlns:sodipodi="http://sodipodi.sourceforge.net/DTD/sodipodi-0.dtd"
   xmlns:inkscape="http://www.inkscape.org/namespaces/inkscape"
   width="315"
   height="100"
   viewBox="0 0 83.343752 100"
   version="1.1"
   id="SVGRoot"
   sodipodi:docname="logo.bec42d1b.svg"
   inkscape:version="0.92.5 (2060ec1f9f, 2020-04-08)">
  <defs
     id="defs2893">
    <linearGradient
       id="linearGradient3807"
       osb:paint="solid">
      <stop
         style="stop-color:#ffffff;stop-opacity:1;"
         offset="0"
         id="stop3805" />
    </linearGradient>
    <linearGradient
       id="linearGradient3801"
       osb:paint="solid">
      <stop
         style="stop-color:#000000;stop-opacity:1;"
         offset="0"
         id="stop3799" />
    </linearGradient>
    <linearGradient
       id="linearGradient3795"
       osb:paint="solid">
      <stop
         style="stop-color:#005500;stop-opacity:1;"
         offset="0"
         id="stop3793" />
    </linearGradient>
    <linearGradient
       id="linearGradient3763"
       osb:paint="solid">
      <stop
         style="stop-color:#005500;stop-opacity:1;"
         offset="0"
         id="stop3761" />
    </linearGradient>
    <linearGradient
       inkscape:collect="always"
       xlink:href="#linearGradient3807"
       id="linearGradient3809"
       x1="68.658997"
       y1="90.619797"
       x2="88.767334"
       y2="90.619797"
       gradientUnits="userSpaceOnUse" />
  </defs>
  <sodipodi:namedview
     id="base"
     pagecolor="#ffffff"
     bordercolor="#666666"
     borderopacity="1.0"
     inkscape:pageopacity="0.0"
     inkscape:pageshadow="2"
     inkscape:zoom="1.4142136"
     inkscape:cx="199.27627"
     inkscape:cy="140.93255"
     inkscape:document-units="mm"
     inkscape:current-layer="layer1-8"
     inkscape:document-rotation="0"
     showgrid="true"
     inkscape:window-width="1366"
     inkscape:window-height="744"
     inkscape:window-x="0"
     inkscape:window-y="165"
     inkscape:window-maximized="1"
     units="px">
    <inkscape:grid
       type="xygrid"
       id="grid3569" />
  </sodipodi:namedview>
  <metadata
     id="metadata2896">
    <rdf:RDF>
      <cc:Work
         rdf:about="">
        <dc:format>image/svg+xml</dc:format>
        <dc:type
           rdf:resource="http://purl.org/dc/dcmitype/StillImage" />
        <dc:title></dc:title>
      </cc:Work>
    </rdf:RDF>
  </metadata>
  <g
     inkscape:label="Layer 1"
     inkscape:groupmode="layer"
     id="layer1"
     style="display:inline"
     transform="translate(0,-110)">
    <text
       xml:space="preserve"
       style="font-style:normal;font-weight:normal;font-size:22.57780075px;line-height:1.25;font-family:sans-serif;fill:#000000;fill-opacity:1;stroke:none;stroke-width:0.26458299"
       x="85.669655"
       y="125.73953"
       id="text2908-7" />
    <g
       id="layer1-2"
       inkscape:label="Layer 1"
       transform="matrix(1.7406206,0,0,1.7406206,-145.21189,-107.00644)">
      <g
         inkscape:export-ydpi="242"
         inkscape:export-xdpi="242"
         transform="matrix(0.26458333,0,0,0.26458333,67.919354,207.55092)"
         style="display:inline"
         id="layer1-8"
         inkscape:label="Layer 1">
        <text
           id="text2908-7-0"
           y="125.73953"
           x="85.669655"
           style="font-style:normal;font-weight:normal;font-size:22.57780075px;line-height:1.25;font-family:sans-serif;fill:#000000;fill-opacity:1;stroke:none;stroke-width:0.26458299"
           xml:space="preserve" />
        <g
           transform="matrix(5.0984843,0,0,5.0984843,-557.28281,-663.49489)"
           style="display:inline"
           id="g3747">
          <g
             style="font-style:normal;font-weight:normal;font-size:26.47730064px;line-height:0;font-family:sans-serif;fill:#000000;fill-opacity:1;stroke:#000000;stroke-width:0.308258;stroke-opacity:0"
             id="text2908"
             transform="scale(0.85257471,1.1729177)"
             aria-label="ART">
            <path
               inkscape:connector-curvature="0"
               id="path49"
               style="font-style:normal;font-variant:normal;font-weight:normal;font-stretch:normal;font-size:26.47730064px;line-height:0.15000001;font-family:Candara;-inkscape-font-specification:Candara;fill:#333333;stroke:#000000;stroke-width:0.308258;stroke-opacity:0"
               d="m 115.37939,79.534478 q -1.18941,2.766671 -1.7324,4.240505 -0.54299,1.473834 -0.54299,1.90047 h -1.38334 q 0,-0.413708 3.59409,-8.209514 3.60701,-7.795807 3.60701,-8.636151 h 1.46091 q 0,0.762774 3.54237,8.468082 3.5553,7.69238 3.5553,8.377583 h -1.33162 q 0,-0.840344 -2.32711,-6.140975 z m 4.26636,-9.644564 h -0.11635 q 0,0.374923 -3.83973,8.791291 h 7.73117 q -1.9134,-4.473216 -2.84425,-6.515898 -0.93084,-2.055611 -0.93084,-2.275393 z" />
            <path
               inkscape:connector-curvature="0"
               id="path51"
               style="font-style:normal;font-variant:normal;font-weight:normal;font-stretch:normal;font-size:26.47730064px;line-height:0.15000001;font-family:Candara;-inkscape-font-specification:Candara;fill:#333333;stroke:#000000;stroke-width:0.308258;stroke-opacity:0"
               d="m 133.94453,68.765146 q 0.74984,0 1.21526,-0.01293 2.68911,0 4.03366,1.021341 1.35747,1.021341 1.35747,3.038167 0,1.603117 -0.85327,2.766671 -0.85327,1.163553 -2.36589,1.809971 v 0.07757 q 1.51262,0.413707 2.61153,2.352963 1.11184,1.939255 2.54689,5.856551 h -1.16355 q -0.89206,-2.365891 -1.83583,-4.253433 -0.93084,-1.900471 -1.60312,-2.456391 -0.65935,-0.568848 -1.22819,-0.762773 -0.56885,-0.206854 -2.43054,-0.206854 -1.8229,0 -2.49517,0.02586 0,5.352345 0.16807,7.653595 h -1.4092 q 0.12929,-2.637387 0.19393,-4.628356 0.0776,-1.990969 0.0776,-4.240505 0,-4.279291 -0.21978,-7.976804 h 1.51262 z m 0.60763,8.274156 q 2.1849,0 3.51652,-1.085983 1.34455,-1.098911 1.34455,-2.883026 0,-1.809972 -1.15063,-2.585674 -1.15062,-0.775702 -3.82679,-0.775702 -1.59019,0 -2.75375,0.07757 0.0517,0.917914 0.0517,2.482247 0,1.34455 -0.0129,2.081468 l -0.0129,2.663244 q 0.2715,0.02586 0.9567,0.02586 z" />
            <path
               inkscape:connector-curvature="0"
               id="path53"
               style="font-style:normal;font-variant:normal;font-weight:normal;font-stretch:normal;font-size:26.47730064px;line-height:0.15000001;font-family:Candara;-inkscape-font-specification:Candara;fill:#333333;stroke:#000000;stroke-width:0.308258;stroke-opacity:0"
               d="m 154.82384,69.851129 q -2.84424,-0.06464 -3.72337,-0.06464 -0.12928,3.025239 -0.12928,6.994248 0,4.227577 0.12928,8.894718 h -1.34455 q 0.20686,-5.416987 0.20686,-8.868861 0,-1.8229 -0.0517,-3.33552 -0.0388,-1.512619 -0.12928,-3.684585 -1.02134,0 -3.02524,0.06464 l -2.55982,0.06464 v -1.085983 h 12.48881 l -0.0517,1.060126 z" />
          </g>
        </g>
        <path
           id="rect3679"
           d="m -190.72874,-217.60932 h 24.91028 v 65.31531 h -24.91028 z"
           style="display:inline;fill:#32875e;fill-opacity:1;fill-rule:evenodd;stroke:#32875e;stroke-width:1.67474234;stroke-opacity:1"
           inkscape:connector-curvature="0" />
        <path
           id="rect3679-5"
           d="m -157.3089,-234.37254 h 24.91028 v 82.0628 h -24.91028 z"
           style="display:inline;fill:#fe914e;fill-opacity:1;fill-rule:evenodd;stroke:#fe914e;stroke-width:1.67474234;stroke-opacity:1"
           inkscape:connector-curvature="0" />
        <path
           inkscape:connector-curvature="0"
           d="m -123.81384,-251.12015 h 24.910256 v 98.81036 h -24.910256 z"
           style="display:inline;fill:#437bd2;fill-opacity:1;fill-rule:evenodd;stroke:#437bd2;stroke-width:1.67474234;stroke-opacity:1"
           id="rect3679-5-1" />
        <path
           inkscape:connector-curvature="0"
           id="path200"
           d="m 167.33951,-152.22481 c -0.0609,-0.17267 -6.90155,-22.47379 -15.20121,-49.5579 -8.29973,-27.08414 -15.13941,-49.38518 -15.19928,-49.55792 -0.0852,-0.24559 1.21894,-0.31404 5.98316,-0.31404 h 6.09208 l 10.51658,36.11633 c 5.78412,19.86399 10.59187,36.20149 10.68392,36.30555 0.092,0.10393 4.74418,-16.12003 10.3381,-36.05355 l 10.17077,-36.24273 5.8327,-0.0674 c 3.20802,-0.037 5.83773,0.0205 5.84384,0.12563 0.008,0.10621 -6.63615,22.54926 -14.76059,49.87353 l -14.77169,49.68048 -2.70875,0.002 c -1.94271,0.002 -2.74012,-0.0856 -2.81963,-0.311 z"
           style="display:inline;fill:#333333;fill-opacity:1;stroke-width:0.25124377" />
        <path
           inkscape:connector-curvature="0"
           id="path202"
           d="m 235.9965,-152.02337 c -9.21905,-1.51206 -16.18129,-7.31746 -21.30258,-17.76301 -3.02895,-6.17806 -4.8455,-12.6633 -5.94063,-21.2087 -0.56017,-4.3709 -0.63789,-17.03474 -0.13006,-21.20875 2.15371,-17.7061 9.71185,-31.47963 20.13892,-36.69978 3.83242,-1.91865 7.10285,-2.635 12.03016,-2.635 9.06251,0 16.09099,2.76099 21.81092,8.56796 4.81674,4.88998 8.66519,12.52509 10.55069,20.93195 2.83038,12.61962 2.68259,29.15258 -0.36911,41.27803 -3.44226,13.67779 -10.57346,23.23919 -20.06158,26.89821 -4.88927,1.88548 -11.8066,2.64608 -16.72665,1.83909 z m 9.65849,-11.88003 c 9.24711,-2.28666 15.20326,-11.19999 17.36198,-25.98194 1.3108,-8.97605 1.00383,-21.12403 -0.74357,-29.42406 -1.954,-9.28117 -6.10182,-15.66998 -12.04514,-18.55259 -2.88391,-1.39877 -4.73389,-1.833 -8.51905,-1.99957 -3.81528,-0.16788 -5.94161,0.23005 -8.8244,1.65129 -6.65267,3.27996 -10.96638,11.58745 -12.79963,24.65006 -0.61887,4.40912 -0.61887,17.53948 0,21.94856 1.45878,10.39425 4.67418,18.61292 9.15657,23.40443 2.19193,2.34314 5.48948,4.13847 8.64971,4.70937 1.65293,0.29856 5.79,0.0826 7.76353,-0.40553 z"
           style="display:inline;fill:#333333;fill-opacity:1;stroke-width:0.24661349" />
        <path
           inkscape:connector-curvature="0"
           id="path204"
           d="m 317.89526,-151.82815 c -1.70988,-0.17633 -5.80956,-1.12146 -7.52924,-1.73523 -13.68177,-4.88321 -22.69468,-19.84926 -24.38825,-40.49709 -1.24112,-15.13185 1.4498,-29.51807 7.36407,-39.36953 5.93502,-9.88602 13.54359,-15.54486 23.90888,-17.78197 3.64694,-0.78712 11.36107,-0.79262 14.70264,-0.0115 4.62188,1.08188 8.70555,3.18121 11.82496,6.07899 l 1.68267,1.56313 -2.17325,5.18176 c -1.1953,2.84996 -2.20335,5.21322 -2.24011,5.25176 -0.0359,0.0386 -1.11216,-0.72077 -2.38961,-1.68723 -2.57107,-1.94512 -6.89898,-4.18698 -9.37692,-4.85732 -2.22504,-0.60184 -7.57703,-0.601 -10.2012,0.001 -7.63096,1.75244 -13.49541,6.82618 -17.38039,15.03697 -2.91046,6.15122 -4.25388,12.55288 -4.5174,21.52674 -0.17131,5.82648 0.12654,9.91932 1.05988,14.58625 2.40484,12.02204 8.84846,20.83048 17.41364,23.80464 3.38831,1.17652 7.83705,1.65566 11.15024,1.20086 4.2235,-0.57975 7.38386,-2.04409 10.30087,-4.77279 l 1.58003,-1.47804 v -11.48124 -11.48124 h -5.69292 -5.69291 v -5.56917 -5.56917 h 11.01458 11.01454 v 21.13988 21.13991 l -1.25668,1.12989 c -6.49883,5.84302 -19.96768,9.70276 -30.17812,8.64803 z"
           style="display:inline;fill:#333333;fill-opacity:1;stroke-width:0.2475186" />
        <path
           inkscape:connector-curvature="0"
           id="path206"
           d="m 392.0469,-151.96176 c -5.43224,-0.58176 -10.45236,-2.44556 -14.03411,-5.21035 -5.15476,-3.97903 -8.32348,-9.62387 -9.86551,-17.57473 -0.52901,-2.72769 -0.53634,-3.19613 -0.62097,-39.834 l -0.0858,-37.07383 h 5.52244 5.52243 l 0.0699,36.07014 0.0699,36.07014 0.56904,2.00738 c 2.63614,9.29963 9.44341,14.4622 18.19927,13.80199 4.71604,-0.35555 7.76817,-1.69606 10.84983,-4.76519 1.64738,-1.64074 2.23514,-2.4498 3.19274,-4.39474 0.64553,-1.31106 1.42787,-3.34352 1.73871,-4.51662 l 0.56501,-2.13282 0.0745,-36.07014 0.0743,-36.07014 h 5.52244 5.52241 l -0.0865,37.07383 c -0.0948,40.56243 -1.4e-4,37.94022 -1.56666,43.34553 -2.63549,9.09349 -9.33228,15.86582 -18.07012,18.27392 -3.50198,0.96509 -9.34327,1.4087 -13.1632,0.99963 z"
           style="display:inline;fill:#333333;fill-opacity:1;stroke-width:0.25092179" />
        <path
           inkscape:connector-curvature="0"
           id="path208"
           d="m 441.82757,-201.77111 v -50.13864 h 25.00525 25.00517 v 6.02689 6.0269 h -19.36296 -19.36307 v 14.10549 14.10553 h 13.84911 13.84898 v 5.77039 5.77045 h -13.84898 -13.84911 v 18.2089 18.20898 h 18.97831 18.97836 v 6.02692 6.02697 h -24.62052 -24.62054 z"
           style="display:inline;fill:#333333;fill-opacity:1;stroke-width:0.25646314" />
      </g>
    </g>
  </g>
</svg>
